<?xml version="1.0" standalone="no"?>
<!DOCTYPE svg PUBLIC "-//W3C//DTD SVG 1.1//EN" "http://www.w3.org/Graphics/SVG/1.1/DTD/svg11.dtd" >
<svg xmlns="http://www.w3.org/2000/svg" xmlns:xlink="http://www.w3.org/1999/xlink" version="1.1">
<metadata>
Created by FontForge 20161013 at Wed Aug 16 14:15:38 2017
 By ,,,
[c] Copyright 1993, 1998-2003, The Font Bureau, Inc. Based on a design by S.H. deRoos. All Rights Reserved.
</metadata>
<defs>
<font id="Nobel-Book" horiz-adv-x="467" >
  <font-face 
    font-family="Nobel"
    font-weight="400"
    font-stretch="normal"
    units-per-em="1000"
    panose-1="0 0 0 0 0 0 0 0 0 0"
    ascent="750"
    descent="-250"
    x-height="408"
    cap-height="730"
    bbox="-55 -190 1110 928"
    underline-thickness="20"
    underline-position="-153"
    unicode-range="U+000D-FB02"
  />
<missing-glyph horiz-adv-x="500" 
 />
    <glyph glyph-name=".notdef" horiz-adv-x="500" 
 />
    <glyph glyph-name=".null" horiz-adv-x="0" 
 />
    <glyph glyph-name="nonmarkingreturn" unicode="&#xd;" horiz-adv-x="250" 
 />
    <glyph glyph-name="space" unicode=" " horiz-adv-x="180" 
 />
    <glyph glyph-name="exclam" unicode="!" horiz-adv-x="200" 
d="M120 141h-43l-14 220v369h72v-369zM63 0v96h72v-96h-72z" />
    <glyph glyph-name="quotedbl" unicode="&#x22;" horiz-adv-x="307" 
d="M237 535h-38l-15 99v96h68v-96zM108 535h-38l-14 99v96h67v-96z" />
    <glyph glyph-name="numbersign" unicode="#" horiz-adv-x="599" 
d="M428 218l-19 -218h-65l19 218h-152l-19 -218h-65l19 218h-109v54h114l16 189h-130v54h135l19 215h65l-19 -215h151l20 215h65l-19 -215h109v-54h-114l-16 -189h130v-54h-135zM232 461l-16 -189h151l17 189h-152z" />
    <glyph glyph-name="dollar" unicode="$" horiz-adv-x="523" 
d="M489 191q0 -41 -15.5 -74.5t-42.5 -58t-64.5 -39.5t-81.5 -18v-74h-56v74q-31 3 -61 12.5t-57 23t-50 30.5t-38 35l44 44q27 -28 70.5 -51.5t91.5 -28.5v302q-39 17 -71.5 35t-56.5 40.5t-37 51t-13 67.5q0 38 14 67.5t38 50.5t56.5 33.5t69.5 15.5v57h56v-57
q54 -4 96.5 -22.5t73.5 -45.5l-39 -51q-30 26 -62 39.5t-69 16.5v-249q42 -19 79 -39t64.5 -46.5t44 -60.5t16.5 -80zM229 667q-48 -5 -78 -31t-30 -72q0 -45 26 -70.5t82 -51.5v225zM418 188q0 30 -9 52t-26 40t-41.5 33.5t-56.5 30.5v-279q61 7 97 38t36 85z" />
    <glyph glyph-name="percent" unicode="%" horiz-adv-x="734" 
d="M334 556q0 -40 -10 -75t-28.5 -61t-45.5 -40.5t-60 -14.5q-27 0 -52 11.5t-44.5 35t-31.5 59t-12 82.5q0 40 10 74.5t28.5 60t45 40t59.5 14.5q34 0 60.5 -15t44.5 -40.5t27 -59t9 -71.5zM149 0h-73l499 730h73zM684 179q0 -40 -10 -75t-28.5 -61t-45.5 -40.5t-60 -14.5
q-27 0 -52 11.5t-44.5 35t-31.5 59t-12 82.5q0 40 10 74.5t28.5 60t45 40t59.5 14.5q34 0 60.5 -15t44.5 -40.5t27 -59t9 -71.5zM271 553q0 26 -4.5 50t-14.5 42.5t-24.5 30t-34.5 11.5t-35.5 -11t-25.5 -29t-15 -42.5t-5 -51.5t4.5 -51t14.5 -42t24.5 -29t34.5 -11
q21 0 36.5 11t25.5 29.5t14.5 42.5t4.5 50zM622 176q0 26 -5 50t-14.5 42.5t-24.5 30t-35 11.5t-35 -11t-25 -29t-15 -42.5t-5 -51.5t4.5 -51t14 -42t24 -29t34.5 -11q21 0 36.5 11t25.5 29.5t15 42.5t5 50z" />
    <glyph glyph-name="ampersand" unicode="&#x26;" horiz-adv-x="635" 
d="M528 0l-69 78q-48 -39 -101.5 -64.5t-120.5 -25.5q-42 0 -79 14.5t-64 40t-43 60.5t-16 75q0 37 12.5 69.5t32.5 60.5t46.5 51.5t53.5 42.5l-44 50q-25 29 -42.5 62t-17.5 71q0 33 13.5 61.5t36 49.5t52.5 33.5t63 12.5q37 0 67 -12t51.5 -33t33.5 -49.5t12 -61.5
q0 -31 -12 -58.5t-31 -51.5t-43 -44.5t-48 -38.5l198 -223q18 18 34 37t31 39l47 -44q-17 -20 -34.5 -40.5t-37.5 -39.5l108 -122h-89zM338 583q0 45 -25.5 72t-70.5 27q-39 0 -68 -26.5t-29 -68.5q0 -29 11 -52.5t37 -52.5l39 -44q17 12 36 27.5t34.5 34t25.5 39.5t10 44z
M220 355q-22 -16 -43 -34.5t-37 -39.5t-25.5 -45.5t-9.5 -51.5q0 -28 10 -52.5t27.5 -42.5t42 -28.5t52.5 -10.5q54 0 100 21t84 54z" />
    <glyph glyph-name="quotesingle" unicode="'" horiz-adv-x="178" 
d="M108 535h-38l-14 99v96h67v-96z" />
    <glyph glyph-name="parenleft" unicode="(" horiz-adv-x="290" 
d="M277 -188q-51 37 -95 87.5t-76.5 111.5t-50.5 131.5t-18 148.5q0 72 17.5 140t49 128.5t75.5 112t98 90.5v-51q-79 -77 -123.5 -184.5t-44.5 -235.5q-1 -130 43 -239.5t125 -187.5v-52z" />
    <glyph glyph-name="parenright" unicode=")" horiz-adv-x="290" 
d="M254 291q0 -78 -18 -148.5t-50.5 -131.5t-76.5 -111.5t-95 -87.5v52q80 78 124 187.5t43 239.5q0 128 -44.5 235.5t-122.5 184.5v51q53 -39 97.5 -90.5t76 -112t49 -128.5t17.5 -140z" />
    <glyph glyph-name="asterisk" unicode="*" horiz-adv-x="393" 
d="M235 561l70 -100l-35 -26l-74 98l-74 -97l-36 24l71 102l-116 39l14 42l117 -36l2 123h43l1 -123l119 36l14 -41z" />
    <glyph glyph-name="plus" unicode="+" horiz-adv-x="502" 
d="M283 300v-175h-64v175h-184v61h184v176h64v-176h184v-61h-184z" />
    <glyph glyph-name="comma" unicode="," horiz-adv-x="178" 
d="M125 15q0 -26 -6 -50t-15.5 -45t-20.5 -38t-21 -29h-42q16 26 24.5 61t8.5 78v104h72v-81z" />
    <glyph glyph-name="hyphen" unicode="-" horiz-adv-x="317" 
d="M53 189v61h211v-61h-211z" />
    <glyph glyph-name="period" unicode="." horiz-adv-x="178" 
d="M53 0v96h72v-96h-72z" />
    <glyph glyph-name="slash" unicode="/" horiz-adv-x="378" 
d="M96 0h-68l255 730h67z" />
    <glyph glyph-name="zero" unicode="0" horiz-adv-x="605" 
d="M565 371q0 -80 -16 -150t-49 -121.5t-83 -81.5t-118 -30q-60 0 -108.5 27.5t-82 77t-51.5 118t-18 149.5q0 80 16 149.5t49 121.5t83 81.5t117 29.5t116 -30.5t81.5 -82t48 -118.5t15.5 -140zM492 365q0 55 -10 110.5t-32.5 100.5t-58.5 73t-88 28q-51 0 -87 -26.5
t-59 -70t-33.5 -100t-10.5 -116.5q0 -56 11 -111.5t34 -100t58 -72t84 -27.5q53 0 89.5 26.5t59 70t33 99.5t10.5 116z" />
    <glyph glyph-name="one" unicode="1" horiz-adv-x="296" 
d="M156 0v613q-10 -12 -26 -23t-34.5 -20.5t-39 -16.5t-38.5 -9v64q21 3 44.5 13.5t44.5 26.5t39 37t28 45h51v-730h-69z" />
    <glyph glyph-name="two" unicode="2" horiz-adv-x="546" 
d="M33 0l319 390q35 42 49.5 74t14.5 64q0 36 -13 63.5t-34.5 46.5t-48.5 28.5t-55 9.5q-71 0 -111.5 -42t-45.5 -104h-69q3 50 21.5 89t49 66.5t70 42t84.5 14.5t85.5 -14t71 -41t49 -66.5t18.5 -90.5q0 -47 -21 -90t-58 -87l-238 -286h328v-67h-466z" />
    <glyph glyph-name="three" unicode="3" horiz-adv-x="570" 
d="M524 211q0 -43 -14.5 -83.5t-45 -71.5t-78 -49.5t-113.5 -18.5q-84 0 -149.5 28.5t-103.5 70.5l44 50q38 -39 91 -62.5t118 -23.5q42 0 76 11.5t57 32.5t35.5 50t12.5 63q0 77 -50.5 115t-134.5 38h-72v62h71q72 0 116 34.5t44 97.5q0 23 -9 45t-27.5 39t-46 28t-63.5 11
q-63 0 -105.5 -28.5t-65.5 -64.5l-57 33q15 24 36.5 46.5t50 39.5t64 27.5t79.5 10.5q56 0 96 -16.5t66.5 -42.5t39 -59.5t12.5 -66.5q0 -59 -30 -100.5t-78 -61.5q59 -20 96.5 -66.5t37.5 -117.5z" />
    <glyph glyph-name="four" unicode="4" horiz-adv-x="554" 
d="M424 185v-185h-67v185h-335v49l353 496h49v-483h111v-62h-111zM357 601l-249 -354h249v354z" />
    <glyph glyph-name="five" unicode="5" horiz-adv-x="580" 
d="M531 252q0 -57 -18 -105.5t-52 -84t-81 -55t-106 -19.5q-34 0 -67.5 7.5t-63.5 20.5t-55.5 29.5t-44.5 35.5l41 51q35 -32 84 -55.5t107 -23.5q45 0 79 16t57 43t35 62t12 72q0 45 -13 80t-35.5 60t-54 38t-69.5 13q-54 0 -93 -26t-62 -71l-54 15l26 375h379v-62h-317
l-15 -223q25 24 60 40t86 16q52 0 95 -18.5t74 -51.5t48.5 -78.5t17.5 -100.5z" />
    <glyph glyph-name="six" unicode="6" horiz-adv-x="559" 
d="M523 237q0 -54 -18 -99.5t-50.5 -79t-77 -52t-97.5 -18.5q-51 0 -94.5 17t-75.5 48.5t-50 77t-18 103.5q0 69 18 132.5t48.5 124.5t72.5 120.5t90 118.5h81q-30 -31 -62 -74t-61.5 -87.5t-52.5 -86.5t-34 -72q25 30 65 48t83 18q53 0 96 -18t73.5 -50.5t47 -76
t16.5 -94.5zM453 235q0 42 -12.5 75.5t-35 56.5t-53.5 35t-68 12q-36 0 -67 -14t-54 -38t-36.5 -56.5t-13.5 -69.5q0 -44 13 -78.5t35.5 -58t54 -36t67.5 -12.5q38 0 69 14.5t53.5 39t35 58t12.5 72.5z" />
    <glyph glyph-name="seven" unicode="7" horiz-adv-x="516" 
d="M149 0h-78l318 666h-340v64h443z" />
    <glyph glyph-name="eight" unicode="8" horiz-adv-x="608" 
d="M567 204q0 -50 -19.5 -90t-54.5 -68t-83 -43t-105 -15t-104.5 15t-82.5 42.5t-54.5 67.5t-19.5 91q0 35 11 65t30 54t44 41t52 25q-20 8 -39 22.5t-33.5 34.5t-23.5 45t-9 54q0 47 18 83.5t49 62t72.5 38.5t89.5 13q50 0 92 -14t72.5 -39.5t47.5 -61t17 -79.5
q0 -29 -8.5 -54.5t-23.5 -46t-34 -35.5t-40 -23q28 -8 53.5 -24t44.5 -39t30 -53.5t11 -68.5zM462 545q0 63 -42.5 99t-114.5 36q-33 0 -62 -9t-50 -26t-33 -41.5t-12 -56.5q0 -63 44 -98t113 -35q73 0 115 35.5t42 95.5zM495 201q0 70 -49.5 110t-140.5 40q-41 0 -76 -9.5
t-60 -28t-39 -45.5t-14 -62q0 -39 16 -68t42 -48t60.5 -28.5t70.5 -9.5q37 0 71 9.5t60.5 28.5t42.5 46.5t16 64.5z" />
    <glyph glyph-name="nine" unicode="9" horiz-adv-x="569" 
d="M524 492q0 -71 -19.5 -137t-52.5 -129t-77 -123.5t-92 -121.5l-57 43q24 26 54 64.5t57.5 78.5t49.5 76t30 57q-29 -30 -67 -44.5t-81 -14.5q-50 0 -93 18.5t-74.5 51.5t-49.5 78t-18 99q0 56 18.5 103t51 80.5t77 52t96.5 18.5q53 0 98.5 -18t78.5 -51t51.5 -79
t18.5 -102zM451 488q0 91 -48.5 140t-125.5 49q-39 0 -70 -14.5t-53.5 -39.5t-34.5 -59.5t-12 -73.5q0 -40 12 -74t34.5 -59t54 -38.5t70.5 -13.5q38 0 69.5 12.5t54.5 36t36 57.5t13 77z" />
    <glyph glyph-name="colon" unicode=":" horiz-adv-x="178" 
d="M53 331v95h72v-95h-72zM53 0v96h72v-96h-72z" />
    <glyph glyph-name="semicolon" unicode=";" horiz-adv-x="178" 
d="M53 331v95h72v-95h-72zM125 15q0 -26 -6 -50t-15.5 -45t-20.5 -38t-21 -29h-42q16 26 24.5 61t8.5 78v104h72v-81z" />
    <glyph glyph-name="less" unicode="&#x3c;" horiz-adv-x="359" 
d="M38 296v57l271 192v-75l-212 -145l212 -146v-77z" />
    <glyph glyph-name="equal" unicode="=" horiz-adv-x="500" 
d="M65 388v61h370v-61h-370zM65 217v61h370v-61h-370z" />
    <glyph glyph-name="greater" unicode="&#x3e;" horiz-adv-x="359" 
d="M50 102v76l212 145l-212 146v76l271 -193v-57z" />
    <glyph glyph-name="question" unicode="?" horiz-adv-x="439" 
d="M401 558q0 -32 -8.5 -59t-22 -52t-30 -48t-33.5 -46q-29 -41 -51.5 -87t-22.5 -98v-24h-69v22q0 35 8.5 66t21.5 58t29.5 52t32.5 48q30 42 52 79.5t22 82.5q0 26 -9 49.5t-25 41t-38.5 27.5t-49.5 10q-44 0 -77.5 -21.5t-56.5 -58.5l-49 44q65 98 183 98q44 0 79.5 -14
t61 -38.5t39 -58.5t13.5 -73zM163 0v96h71v-96h-71z" />
    <glyph glyph-name="at" unicode="@" horiz-adv-x="844" 
d="M799 395q0 -63 -16.5 -107.5t-41.5 -73.5t-55 -42.5t-57 -13.5q-36 0 -57 15.5t-28 41.5q-26 -23 -65.5 -40t-90.5 -17q-68 0 -108.5 36t-40.5 96q0 69 56 106.5t155 37.5h90v18q0 27 -8.5 44.5t-23.5 27t-35.5 13t-43.5 3.5q-75 0 -126 -27l-22 44q29 17 67 25t76 8
q85 0 127 -31.5t42 -102.5v-213q0 -23 11.5 -32.5t34.5 -9.5q18 0 38 11.5t37.5 35t29 59.5t11.5 86q0 60 -23 115t-65.5 97t-104.5 67.5t-140 25.5q-69 0 -130 -26t-106 -71.5t-71.5 -106.5t-26.5 -130q0 -67 26.5 -128t71.5 -106.5t106 -72.5t130 -27q29 0 62.5 6t71.5 24
l18 -39q-42 -19 -79.5 -26t-72.5 -7q-78 0 -146.5 29.5t-120 81t-81 120t-29.5 146.5t29.5 146.5t81 120t120 81t146.5 29.5q84 0 153.5 -27t119 -74.5t77 -110.5t27.5 -135zM539 386h-87q-75 0 -114 -23t-39 -71q0 -37 25 -59.5t76 -22.5q38 0 75.5 17t63.5 40v119z" />
    <glyph glyph-name="A" unicode="A" horiz-adv-x="668" 
d="M544 0l-94 260h-254l-94 -260h-74l275 737h42l276 -737h-77zM323 614l-103 -290h206z" />
    <glyph glyph-name="B" unicode="B" horiz-adv-x="573" 
d="M531 200q0 -46 -17 -83t-48.5 -63t-76 -40t-98.5 -14h-213v730h180q48 0 89 -12.5t70 -35.5t45.5 -57t16.5 -78q0 -63 -29.5 -105t-77.5 -62q24 -4 51.5 -16.5t51.5 -34.5t40 -54t16 -75zM407 543q0 60 -41 91.5t-116 31.5h-103v-262h104q73 0 114.5 38t41.5 101z
M458 204q0 35 -14.5 60.5t-39 42t-55.5 25t-64 8.5h-138v-276h139q37 0 68.5 8.5t54.5 25.5t36 43.5t13 62.5z" />
    <glyph glyph-name="C" unicode="C" horiz-adv-x="721" 
d="M681 121q-20 -25 -48 -49t-63 -43t-77.5 -30t-92.5 -11q-70 0 -134.5 27.5t-113.5 77.5t-78 119.5t-29 152.5q0 77 27 145t75 120t113.5 82t141.5 30q90 0 155.5 -30.5t109.5 -84.5l-51 -45q-40 44 -93 68.5t-121 24.5q-61 0 -113 -24t-90 -65.5t-59.5 -97.5t-21.5 -120
q0 -71 23.5 -129t63 -99t91 -63t106.5 -22q70 0 125.5 27.5t103.5 80.5z" />
    <glyph glyph-name="D" unicode="D" horiz-adv-x="673" 
d="M628 370q0 -82 -28.5 -150.5t-79.5 -117t-122.5 -75.5t-157.5 -27h-162v730h166q85 0 155.5 -25.5t121.5 -72.5t79 -113.5t28 -148.5zM555 369q0 66 -22.5 121t-63 94.5t-96.5 61.5t-123 22h-103v-606h94q74 0 132 24t98.5 65.5t62 97.5t21.5 120z" />
    <glyph glyph-name="E" unicode="E" horiz-adv-x="534" 
d="M78 0v730h386v-64h-317v-262h297v-64h-297v-276h336v-64h-405z" />
    <glyph glyph-name="F" unicode="F" horiz-adv-x="463" 
d="M147 666v-264h250v-64h-250v-338h-69v730h341v-64h-272z" />
    <glyph glyph-name="G" unicode="G" horiz-adv-x="796" 
d="M761 309q-2 -67 -29.5 -125.5t-73.5 -102t-106.5 -68.5t-128.5 -25q-76 0 -144.5 27.5t-120.5 77t-82.5 118.5t-30.5 153q0 82 30 151.5t81.5 119.5t120 78.5t146.5 28.5q87 0 152 -28t116 -79l-44 -51q-51 50 -103.5 70.5t-122.5 20.5q-64 0 -119 -23.5t-96 -65
t-64.5 -98.5t-23.5 -125q0 -66 23.5 -122.5t65 -98t97.5 -64.5t120 -23q47 0 89.5 14t76.5 39t57.5 59.5t33.5 76.5h-242v65h322z" />
    <glyph glyph-name="H" unicode="H" horiz-adv-x="686" 
d="M538 0v340h-391v-340h-69v730h69v-325h391v325h70v-730h-70z" />
    <glyph glyph-name="I" unicode="I" horiz-adv-x="225" 
d="M78 0v730h69v-730h-69z" />
    <glyph glyph-name="J" unicode="J" horiz-adv-x="350" 
d="M277 194q0 -45 -14 -82t-39.5 -64t-60.5 -42t-76 -15q-8 0 -28 0.5t-31 3.5v63q4 -1 12.5 -1.5t17.5 -0.5h17.5h11.5q27 0 49 10.5t38 28.5t25 43t9 54v538h69v-536z" />
    <glyph glyph-name="K" unicode="K" horiz-adv-x="593" 
d="M483 0l-293 363l-43 -45v-318h-69v730h69v-322l299 322h88l-297 -317l334 -413h-88z" />
    <glyph glyph-name="L" unicode="L" horiz-adv-x="482" 
d="M78 0v730h69v-666h308v-64h-377z" />
    <glyph glyph-name="M" unicode="M" horiz-adv-x="818" 
d="M671 0v615l-245 -355h-34l-245 353v-613h-69v730h68l264 -380l260 380h70v-730h-69z" />
    <glyph glyph-name="N" unicode="N" horiz-adv-x="727" 
d="M584 0l-437 612v-612h-69v730h69l432 -607v607h70v-730h-65z" />
    <glyph glyph-name="O" unicode="O" horiz-adv-x="823" 
d="M778 366q0 -80 -28.5 -149t-78 -120t-116 -80t-143.5 -29t-144 28.5t-116.5 79.5t-78 120t-28.5 150q0 80 28 148.5t77 119t116 79.5t144 29q80 0 147.5 -29t116.5 -79.5t76.5 -119t27.5 -148.5zM705 367q0 66 -22 122t-61.5 97.5t-93.5 65t-118 23.5q-63 0 -116.5 -23.5
t-92.5 -65t-61 -98t-22 -122.5q0 -67 23 -124t63 -98.5t93.5 -65t114.5 -23.5t114.5 23t93 64.5t62.5 98.5t23 126z" />
    <glyph glyph-name="P" unicode="P" horiz-adv-x="540" 
d="M505 520q0 -46 -16.5 -85.5t-47 -68.5t-73 -45.5t-95.5 -16.5h-126v-304h-69v730h186q59 0 103.5 -16t75.5 -44t46.5 -66.5t15.5 -83.5zM433 520q0 69 -44.5 107.5t-135.5 38.5h-106v-298h119q84 0 125.5 43t41.5 109z" />
    <glyph glyph-name="Q" unicode="Q" horiz-adv-x="823" 
d="M778 366q0 -89 -34.5 -164t-94.5 -126q20 -13 41.5 -21.5t39.5 -10.5l-51 -57q-23 7 -45 19.5t-42 28.5q-40 -22 -85 -34.5t-95 -12.5q-77 0 -144 28.5t-116.5 79.5t-78 120t-28.5 150q0 80 28 148.5t77 119t116 79.5t144 29q80 0 147.5 -29t116.5 -79.5t76.5 -119
t27.5 -148.5zM705 367q0 66 -22 122t-61.5 97.5t-93.5 65t-118 23.5q-63 0 -116.5 -23.5t-92.5 -65t-61 -98t-22 -122.5q0 -67 23 -124t63 -98.5t93.5 -65t114.5 -23.5q68 0 128 29q-16 17 -28.5 33.5t-19.5 30.5l47 38q8 -16 22.5 -33t31.5 -34q52 42 82 105.5t30 142.5z
" />
    <glyph glyph-name="R" unicode="R" horiz-adv-x="573" 
d="M452 0l-305 346v-346h-69v730h204q49 0 91 -15t72.5 -42.5t48 -66t17.5 -84.5q0 -47 -18.5 -85.5t-49.5 -66t-72 -42.5t-87 -15h-19l277 -313h-90zM439 524q0 31 -12.5 57t-34 45t-52 29.5t-66.5 10.5h-127v-295h120q36 0 67.5 10t55 29t36.5 48t13 66z" />
    <glyph glyph-name="S" unicode="S" horiz-adv-x="499" 
d="M460 183q0 -45 -17.5 -81t-46.5 -61.5t-68 -39t-81 -13.5q-54 0 -106 18.5t-96 56.5l42 52q32 -28 73 -44t85 -16q30 0 56 8.5t45.5 24.5t30.5 39t11 52q0 32 -12.5 56t-33 43t-47 34t-54.5 30q-35 18 -69 37t-61 44t-43.5 58.5t-16.5 79.5q0 41 14.5 74t41 57t62 37
t77.5 13q57 0 103.5 -16.5t87.5 -54.5l-43 -53q-32 32 -66.5 44.5t-81.5 12.5q-24 0 -46 -7t-39 -21.5t-27 -35t-10 -47.5q0 -33 12 -56t33 -41t50.5 -33.5t63.5 -33.5q33 -17 65 -35.5t57 -43.5t40 -58t15 -80z" />
    <glyph glyph-name="T" unicode="T" horiz-adv-x="478" 
d="M273 666v-666h-70v666h-169v64h410v-64h-171z" />
    <glyph glyph-name="U" unicode="U" horiz-adv-x="689" 
d="M616 270q0 -64 -21 -116t-57.5 -89t-86.5 -57t-107 -20q-58 0 -107.5 19.5t-86 56.5t-57 89t-20.5 117v460h70v-460q0 -51 16 -91.5t43.5 -68.5t64 -42.5t77.5 -14.5t77.5 14.5t64.5 42.5t44.5 68.5t16.5 91.5v460h69v-460z" />
    <glyph glyph-name="V" unicode="V" horiz-adv-x="643" 
d="M335 -16h-28l-279 746h70l224 -598l225 598h68z" />
    <glyph glyph-name="W" unicode="W" horiz-adv-x="924" 
d="M677 0h-49l-167 578l-169 -578h-48l-211 730h70l168 -579l168 579h47l167 -578l169 578h69z" />
    <glyph glyph-name="X" unicode="X" horiz-adv-x="682" 
d="M568 0l-227 332l-229 -332h-81l270 392l-231 338h84l189 -275l190 275h79l-229 -336l269 -394h-84z" />
    <glyph glyph-name="Y" unicode="Y" horiz-adv-x="636" 
d="M351 344v-344h-70v345l-257 385h81l214 -318l213 318h79z" />
    <glyph glyph-name="Z" unicode="Z" horiz-adv-x="623" 
d="M151 66h424v-66h-544l426 664h-370v66h492z" />
    <glyph glyph-name="bracketleft" unicode="[" horiz-adv-x="277" 
d="M75 -179v909h172v-60h-106v-789h106v-60h-172z" />
    <glyph glyph-name="backslash" unicode="\" horiz-adv-x="378" 
d="M283 0l-255 730h68l254 -730h-67z" />
    <glyph glyph-name="bracketright" unicode="]" horiz-adv-x="277" 
d="M30 -179v60h106v789h-106v60h172v-909h-172z" />
    <glyph glyph-name="asciicircum" unicode="^" horiz-adv-x="483" 
d="M371 369l-132 291l-130 -291h-75l173 361h66l173 -361h-75z" />
    <glyph glyph-name="underscore" unicode="_" horiz-adv-x="500" 
d="M0 -115v52h500v-52h-500z" />
    <glyph glyph-name="grave" unicode="`" 
d="M244 488l-88 138h70l86 -138h-68z" />
    <glyph glyph-name="a" unicode="a" horiz-adv-x="442" 
d="M322 0v39q-27 -23 -62 -37t-78 -14q-69 0 -109 36t-40 96q0 72 59.5 109t157.5 37h73v18q0 48 -28 63.5t-72 15.5q-75 0 -124 -26l-24 50q28 17 66.5 25t76.5 8q85 0 127 -31.5t42 -91.5v-297h-65zM322 211h-55q-82 0 -124.5 -21t-42.5 -70q0 -37 28.5 -55t65.5 -18
q38 0 69.5 13.5t58.5 34.5v116z" />
    <glyph glyph-name="b" unicode="b" horiz-adv-x="489" 
d="M455 206q0 -43 -13.5 -82.5t-38.5 -69.5t-60 -48t-78 -18q-50 0 -85 25t-52 55v-68h-65v730h65v-390q17 30 53.5 55t83.5 25q42 0 77 -15t60 -43t39 -67.5t14 -88.5zM388 204q0 68 -33.5 111.5t-99.5 43.5q-29 0 -53 -13t-41.5 -34.5t-27 -49t-9.5 -56.5q0 -32 10 -60.5
t27.5 -50.5t42 -34.5t53.5 -12.5q32 0 56.5 13t41 34.5t25 49.5t8.5 59z" />
    <glyph glyph-name="c" unicode="c" horiz-adv-x="442" 
d="M419 88q-29 -42 -74.5 -71t-103.5 -29q-48 0 -86 17t-65 46t-41.5 69t-14.5 85q0 44 15 83t42 68.5t64 46.5t81 17q35 0 62.5 -8t48.5 -20.5t37 -27.5t27 -30l-49 -38q-20 26 -49.5 44.5t-72.5 18.5q-31 0 -57 -12.5t-44 -33.5t-28 -48t-10 -57q0 -35 10.5 -64.5
t28.5 -50.5t43.5 -33t55.5 -12q44 0 75.5 20t57.5 55z" />
    <glyph glyph-name="d" unicode="d" horiz-adv-x="489" 
d="M361 0v66q-17 -30 -54.5 -54t-86.5 -24q-42 0 -76.5 17.5t-59 47t-37.5 69t-13 82.5q0 48 15 88t40.5 68.5t60.5 44t75 15.5q46 0 82 -23t54 -55v388h65v-730h-65zM364 206q0 29 -9.5 56.5t-26.5 49t-42 34.5t-55 13q-60 0 -95 -43.5t-35 -111.5q0 -31 8.5 -59.5
t24.5 -50t40.5 -34t55.5 -12.5q30 0 54.5 12.5t42.5 34t27.5 50.5t9.5 61z" />
    <glyph glyph-name="e" unicode="e" horiz-adv-x="465" 
d="M100 202q1 -33 11 -61t28.5 -48.5t45 -32.5t60.5 -12q46 0 78.5 15t60.5 41l42 -41q-29 -29 -73 -52t-110 -23q-49 0 -87.5 17t-65.5 46.5t-41.5 70t-14.5 87.5q0 42 14 80t40.5 67.5t64.5 46.5t85 17q48 0 84 -17.5t61 -47.5t37.5 -69.5t13.5 -83.5h-334zM361 254
q-4 21 -14 40t-25.5 34t-37.5 24t-49 9q-57 0 -90.5 -31t-41.5 -76h258z" />
    <glyph glyph-name="f" unicode="f" horiz-adv-x="231" 
d="M143 348v-348h-65v348h-66v60h66v232q0 48 28 69.5t65 21.5h20t21 -1v-59q-7 1 -13 1h-10h-7q-17 -1 -28 -12t-11 -40v-212h70v-60h-70z" />
    <glyph glyph-name="g" unicode="g" horiz-adv-x="489" 
d="M426 3q0 -50 -16 -86t-43 -60t-63 -35.5t-77 -11.5q-48 0 -92 14.5t-77 46.5l37 46q31 -26 64 -37t67 -11q27 0 51.5 7.5t43 23t29.5 38.5t11 53v75q-19 -34 -55 -56t-83 -22q-42 0 -76.5 15t-59.5 43t-39 67.5t-14 87.5q0 44 13.5 83.5t38.5 69.5t60 48t78 18
q49 0 84.5 -24.5t52.5 -54.5v67h65v-405zM364 203q0 32 -9.5 60t-27 49.5t-42 34t-54.5 12.5q-31 0 -55.5 -13t-41 -34t-25 -49t-8.5 -58q0 -69 34 -113t98 -44q29 0 53.5 13t41.5 34.5t26.5 49.5t9.5 58z" />
    <glyph glyph-name="h" unicode="h" horiz-adv-x="459" 
d="M340 0v260q0 47 -26.5 73.5t-68.5 26.5q-25 0 -46.5 -10t-37 -26.5t-24.5 -39t-9 -48.5v-236h-65v730h65v-381q17 31 50.5 51t75.5 20q69 0 110 -40t41 -109v-271h-65z" />
    <glyph glyph-name="i" unicode="i" horiz-adv-x="191" 
d="M63 512v96h65v-96h-65zM63 0v408h65v-408h-65z" />
    <glyph glyph-name="j" unicode="j" horiz-adv-x="191" 
d="M63 512v96h65v-96h-65zM128 -100q0 -23 -8 -39t-20.5 -26t-29 -14.5t-33.5 -4.5q-15 0 -24.5 1t-21.5 4l-4 57q23 -5 42 -4q12 0 23 5.5t11 25.5v503h65v-508z" />
    <glyph glyph-name="k" unicode="k" horiz-adv-x="438" 
d="M335 0l-159 192l-48 -44v-148h-65v730h65v-502l189 180h91l-184 -172l197 -236h-86z" />
    <glyph glyph-name="l" unicode="l" horiz-adv-x="191" 
d="M63 0v730h65v-730h-65z" />
    <glyph glyph-name="m" unicode="m" horiz-adv-x="710" 
d="M590 0v265q0 45 -22 70t-60 25q-24 0 -45.5 -9t-37 -24.5t-24.5 -36t-9 -43.5v-247h-65v265q0 45 -21 70t-63 25q-24 0 -45 -9t-36.5 -25t-24.5 -36.5t-9 -43.5v-246h-65v408h65v-55q18 29 51.5 48t72.5 19q51 0 81 -20t45 -54q23 34 62 54t78 20q36 0 62.5 -11.5
t43 -31.5t24.5 -46.5t8 -57.5v-273h-66z" />
    <glyph glyph-name="n" unicode="n" horiz-adv-x="461" 
d="M341 0v260q0 44 -24 72t-72 28q-28 0 -50 -11.5t-37 -29.5t-22.5 -40t-7.5 -43v-236h-65v408h65v-59q19 33 52.5 52t74.5 19q69 0 110 -40.5t41 -108.5v-271h-65z" />
    <glyph glyph-name="o" unicode="o" horiz-adv-x="493" 
d="M459 207q0 -47 -16.5 -87t-45 -69.5t-67.5 -46t-84 -16.5t-83.5 16t-67 44.5t-45 68.5t-16.5 88q0 45 15.5 84t43.5 68.5t67 46t85 16.5t85.5 -16.5t68 -45t44.5 -67.5t16 -84zM392 205q0 69 -41 111.5t-106 42.5q-32 0 -58.5 -11.5t-45.5 -32.5t-29.5 -49t-10.5 -61
q0 -34 10.5 -63t29.5 -50t45.5 -32.5t58.5 -11.5q34 0 61.5 12t46.5 33t29 49.5t10 62.5z" />
    <glyph glyph-name="p" unicode="p" horiz-adv-x="489" 
d="M455 204q0 -49 -15 -88.5t-40.5 -68t-60.5 -44t-75 -15.5q-46 0 -82 23t-54 55v-245h-65v587h65v-67q17 30 54 54.5t87 24.5q42 0 76.5 -17.5t59 -47.5t37.5 -69t13 -82zM388 204q0 31 -8.5 59t-24.5 49.5t-40 34t-56 12.5q-30 0 -54.5 -12.5t-42.5 -34t-28 -50
t-10 -60.5q0 -29 9.5 -57t27 -49.5t42 -34.5t54.5 -13t54 11.5t41.5 32.5t26.5 49.5t9 62.5z" />
    <glyph glyph-name="q" unicode="q" horiz-adv-x="489" 
d="M361 -179v245q-18 -32 -54.5 -55t-83.5 -23q-42 0 -76.5 15t-59.5 43t-39 67.5t-14 87.5q0 44 13.5 83.5t38.5 69.5t60 48t78 18q49 0 84.5 -24.5t52.5 -54.5v67h65v-587h-65zM364 203q0 32 -9.5 60t-27 49.5t-42 34t-54.5 12.5q-31 0 -55.5 -13t-41 -34t-25 -49
t-8.5 -58q0 -69 34 -113t98 -44q29 0 53.5 13t41.5 34.5t26.5 49.5t9.5 58z" />
    <glyph glyph-name="r" unicode="r" horiz-adv-x="325" 
d="M284 336q-27 23 -59 23q-20 0 -37.5 -10.5t-31 -28.5t-21 -41.5t-7.5 -49.5v-229h-65v408h65v-56q17 30 45 49t63 19q25 0 43.5 -7t37.5 -24z" />
    <glyph glyph-name="s" unicode="s" horiz-adv-x="361" 
d="M323 109q0 -26 -11.5 -48t-31 -38t-45.5 -25t-54 -9q-41 0 -78.5 13t-65.5 35l35 50q24 -19 53 -29t54 -10q29 0 53.5 16t24.5 43q0 17 -7 28.5t-19.5 20.5t-29 15.5t-34.5 12.5q-21 8 -43 18t-39 24t-28 34.5t-11 48.5q0 26 11 46.5t30 34.5t43 22t49 8q34 0 67 -9
t64 -32l-30 -50q-24 17 -49.5 25t-51.5 8q-24 0 -46 -12t-22 -39q0 -26 23 -40.5t61 -27.5q23 -8 45.5 -18.5t41 -25.5t30 -36.5t11.5 -53.5z" />
    <glyph glyph-name="t" unicode="t" horiz-adv-x="255" 
d="M219 -2l-11 -1h-8.5h-4.5q-55 0 -87 24.5t-32 85.5v241h-60v60h60v191h65v-191h77v-60h-77v-240q0 -50 56 -50h22v-60z" />
    <glyph glyph-name="u" unicode="u" horiz-adv-x="463" 
d="M335 0v59q-18 -32 -51.5 -51.5t-76.5 -19.5q-72 0 -111 40t-39 109v271h65v-260q0 -42 24.5 -71.5t71.5 -29.5q27 0 49 11.5t37 29.5t23 40.5t8 43.5v236h65v-408h-65z" />
    <glyph glyph-name="v" unicode="v" horiz-adv-x="411" 
d="M206 -18l-192 426h71l121 -278l123 278h68z" />
    <glyph glyph-name="w" unicode="w" horiz-adv-x="630" 
d="M440 -18l-124 294l-125 -294l-177 426h70l112 -271l120 276l121 -274l110 269h69z" />
    <glyph glyph-name="x" unicode="x" horiz-adv-x="423" 
d="M327 0l-116 169l-117 -169h-78l156 223l-130 185h78l91 -131l90 131h77l-128 -184l157 -224h-80z" />
    <glyph glyph-name="y" unicode="y" horiz-adv-x="409" 
d="M203 -92q-14 -38 -39.5 -65.5t-73.5 -27.5q-35 0 -63 11v61q23 -12 46 -12q18 0 30.5 6t21 16.5t14.5 24t12 28.5l19 48l-155 410h70l123 -323l118 323h68z" />
    <glyph glyph-name="z" unicode="z" horiz-adv-x="424" 
d="M139 60h242v-60h-362l260 347h-222v61h343z" />
    <glyph glyph-name="braceleft" unicode="{" horiz-adv-x="287" 
d="M258 -179q-50 20 -81 44.5t-47.5 56t-22 72.5t-5.5 94q0 32 -1.5 62t-8.5 53t-21 37.5t-39 14.5v60q25 0 39 14.5t21 37.5t8.5 53.5t1.5 61.5q0 53 5.5 94t22 72.5t47.5 56t81 44.5v-48q-27 -19 -44 -37.5t-27 -41.5t-14 -53t-4 -73q0 -36 -1.5 -68.5t-8.5 -60
t-21.5 -48.5t-40.5 -34q26 -13 40.5 -34t21.5 -48.5t8.5 -60t1.5 -68.5q0 -43 4 -73t14 -53t27 -41.5t44 -37.5v-48z" />
    <glyph glyph-name="bar" unicode="|" horiz-adv-x="221" 
d="M78 -179v909h65v-909h-65z" />
    <glyph glyph-name="braceright" unicode="}" horiz-adv-x="287" 
d="M255 255q-25 0 -39 -14.5t-21 -37.5t-8.5 -53t-1.5 -62q0 -53 -5.5 -94t-22 -72.5t-47.5 -56t-81 -44.5v48q27 19 44 37.5t27 41.5t14 53t4 73q0 36 1.5 68.5t8.5 60t21.5 48.5t40.5 34q-26 13 -40.5 34t-21.5 48.5t-8.5 60t-1.5 68.5q0 43 -4 73t-14 53t-27 41.5
t-44 37.5v48q50 -20 81 -44.5t47.5 -56t22 -72.5t5.5 -94q0 -31 1.5 -61.5t8.5 -53.5t21 -37.5t39 -14.5v-60z" />
    <glyph glyph-name="asciitilde" unicode="~" 
d="M421 437q-2 -25 -7.5 -50.5t-17.5 -45.5t-31.5 -32.5t-49.5 -12.5q-25 0 -49 14t-44 30q-22 17 -37.5 27t-30.5 10q-18 0 -29.5 -21t-13.5 -57h-65q2 25 7.5 50t17 45t31 32.5t50.5 12.5q24 0 48 -14t44 -29t37.5 -26.5t31.5 -11.5q18 0 29.5 22t13.5 57h65z" />
    <glyph glyph-name="nonbreakingspace" unicode="&#xa0;" horiz-adv-x="90" 
 />
    <glyph glyph-name="exclamdown" unicode="&#xa1;" horiz-adv-x="200" 
d="M63 634v96h72v-96h-72zM63 0v369l14 220h43l15 -220v-369h-72z" />
    <glyph glyph-name="cent" unicode="&#xa2;" horiz-adv-x="449" 
d="M419 88q-26 -38 -66 -66t-91 -33v-68h-47v68q-42 5 -75.5 23.5t-57 47.5t-36 66t-12.5 79q0 41 13.5 78t37.5 65.5t57 47t73 22.5v77h47v-77q57 -6 93 -32t56 -52l-49 -38q-18 23 -42.5 40t-57.5 22v-309q35 5 61.5 24.5t48.5 49.5zM215 358q-53 -10 -84 -52.5t-31 -97.5
q0 -63 32 -106.5t83 -51.5v308z" />
    <glyph glyph-name="sterling" unicode="&#xa3;" horiz-adv-x="558" 
d="M522 154q1 -33 -4.5 -63t-19.5 -53t-38 -36.5t-61 -13.5q-38 0 -71 18.5t-59 38.5q-49 -57 -131 -57q-19 0 -37 5.5t-32.5 16t-23 25t-8.5 33.5q0 39 30 61.5t81 22.5q29 0 53 -7t45 -18q3 11 5 21.5t2 21.5q0 15 -2 29t-7 27h-166v42h149q-10 22 -26 44h-123v41h94
q-16 23 -31.5 44t-28.5 44t-21 48.5t-8 55.5q0 45 15.5 81t44 62t67.5 40t87 14q50 0 89 -15t66 -40.5t41.5 -59t14.5 -69.5h-73q-5 54 -40.5 87t-98.5 33q-62 0 -101 -34t-39 -97q0 -30 9 -55.5t23.5 -48t32 -44.5t33.5 -46h168v-41h-142q6 -11 10.5 -22t9.5 -22h122v-42
h-110q2 -11 3.5 -21.5t1.5 -23.5q0 -46 -14 -85q20 -14 45 -28t50 -14q19 0 30.5 9t18 23t9 32t2.5 36h64zM219 78q-12 9 -32 16.5t-40 7.5q-51 0 -51 -34q0 -17 14 -24t32 -7q23 0 43 11.5t34 29.5z" />
    <glyph glyph-name="currency" unicode="&#xa4;" horiz-adv-x="607" 
d="M176 297q6 -48 19.5 -92t36 -77.5t54 -54t72.5 -20.5q56 0 93 28t61 76l62 -32q-34 -66 -86.5 -101.5t-130.5 -35.5q-54 0 -98 22.5t-76.5 63.5t-53 97.5t-26.5 125.5h-83v42h80q-1 23 0 45h-80v40h82q6 68 24.5 126t51 100.5t78 67t105.5 24.5q75 0 127 -35t84 -98
l-61 -32q-24 45 -59.5 72.5t-91.5 27.5q-43 0 -76 -20t-55.5 -54.5t-35.5 -80.5t-18 -98h222v-40h-224q-1 -24 0 -45h224v-42h-221z" />
    <glyph glyph-name="yen" unicode="&#xa5;" horiz-adv-x="622" 
d="M344 344v-74h175v-41h-175v-71h175v-41h-175v-117h-69v117h-184v41h184v71h-184v41h184v75l-257 385h80l213 -318l214 318h79z" />
    <glyph glyph-name="brokenbar" unicode="&#xa6;" horiz-adv-x="221" 
d="M78 730h65v-379h-65v379zM143 -179h-65v379h65v-379z" />
    <glyph glyph-name="section" unicode="&#xa7;" horiz-adv-x="650" 
d="M615 242q0 -56 -32.5 -105.5t-83.5 -76.5q20 -17 31 -40.5t11 -52.5q0 -75 -57 -114t-159 -39q-33 0 -66.5 6.5t-64 17t-56.5 24.5t-44 29l38 51q15 -13 37 -24.5t48 -20.5t54.5 -14t56.5 -5q75 0 107.5 24.5t32.5 58.5q0 39 -37.5 60t-105.5 46l-99 38q-40 15 -75.5 34
t-62 44t-41.5 57.5t-15 74.5q0 55 32.5 104.5t83.5 76.5q-20 18 -31 41t-11 52q0 75 58 114t158 39q70 0 132.5 -23t99.5 -54l-39 -51q-30 26 -83 45t-113 19q-75 0 -107 -24t-32 -58q0 -20 9.5 -34.5t27.5 -26.5t44.5 -22.5t60.5 -23.5l99 -38q41 -15 76.5 -34t61.5 -43.5
t41 -57t15 -74.5zM542 238q0 31 -11 54t-32 41t-52 32.5t-72 29.5q-9 3 -34.5 12.5t-53.5 20.5t-52 20.5t-32 13.5q-45 -21 -71.5 -58.5t-26.5 -85.5q0 -31 11 -53.5t32 -40.5t52.5 -32.5t71.5 -29.5q9 -3 34.5 -12.5t53.5 -20.5t52.5 -21t31.5 -14q45 22 71.5 59t26.5 85z
" />
    <glyph glyph-name="dieresis" unicode="&#xa8;" 
d="M279 488v96h66v-96h-66zM122 488v96h66v-96h-66z" />
    <glyph glyph-name="copyright" unicode="&#xa9;" horiz-adv-x="844" 
d="M799 365q0 -78 -29.5 -146.5t-81 -120t-120 -81t-146.5 -29.5t-146.5 29.5t-120 81t-81 120t-29.5 146.5t29.5 146.5t81 120t120 81t146.5 29.5t146.5 -29.5t120 -81t81 -120t29.5 -146.5zM756 364q0 69 -26 130t-71.5 106.5t-106.5 72t-130 26.5t-130 -26.5t-106.5 -72
t-71.5 -106.5t-26 -130t26 -130t71.5 -106t106.5 -71.5t130 -26.5t130 26.5t106.5 71.5t71.5 106t26 130zM591 220q-24 -30 -67 -54.5t-101 -24.5q-43 0 -81.5 16.5t-68 46.5t-47 72.5t-17.5 94.5q0 45 16 85t44 70.5t67.5 48.5t85.5 18q54 0 94 -18t66 -50l-37 -33
q-23 25 -52.5 38t-67.5 13q-36 0 -65.5 -13t-51.5 -36.5t-34 -54.5t-12 -67q0 -41 13.5 -74.5t35.5 -57t51.5 -36.5t60.5 -13q40 0 72 15.5t60 44.5z" />
    <glyph glyph-name="ordfeminine" unicode="&#xaa;" horiz-adv-x="430" 
d="M296 401v30q-22 -18 -49.5 -29t-62.5 -11q-55 0 -88 29.5t-33 77.5q0 60 48 89.5t128 29.5h58v15q0 37 -22 49.5t-57 12.5q-59 0 -101 -21l-20 43q23 13 54 19.5t63 6.5q137 0 137 -100v-241h-55zM63 288v48h293v-48h-293zM296 570h-43q-67 0 -100 -17t-33 -55
q0 -29 22 -43.5t52 -14.5q32 0 56 11t46 29v90z" />
    <glyph glyph-name="guillemotleft" unicode="&#xab;" horiz-adv-x="352" 
d="M168 195v34l148 138v-71l-86 -84l86 -84v-72zM24 195v34l148 138v-71l-86 -84l86 -84v-72z" />
    <glyph glyph-name="logicalnot" unicode="&#xac;" horiz-adv-x="730" 
d="M305 670v60h120v-60h-120zM670 305v120h60v-120h-60zM305 305v120h120v-120h-120zM0 305v120h60v-120h-60zM305 0v60h120v-60h-120z" />
    <glyph glyph-name="registered" unicode="&#xae;" horiz-adv-x="844" 
d="M799 365q0 -78 -29.5 -146.5t-81 -120t-120 -81t-146.5 -29.5t-146.5 29.5t-120 81t-81 120t-29.5 146.5t29.5 146.5t81 120t120 81t146.5 29.5t146.5 -29.5t120 -81t81 -120t29.5 -146.5zM756 364q0 69 -26 130t-71.5 106.5t-106.5 72t-130 26.5t-130 -26.5t-106.5 -72
t-71.5 -106.5t-26 -130t26 -130t71.5 -106t106.5 -71.5t130 -26.5t130 26.5t106.5 71.5t71.5 106t26 130zM525 155l-176 203v-203h-51v438h132q29 0 54 -9t43.5 -25.5t29 -39.5t10.5 -51q0 -29 -11 -52t-30 -39t-44 -24.5t-52 -8.5h-7l167 -189h-65zM514 469q0 32 -24 54
t-62 22h-79v-159h72q42 0 67.5 21.5t25.5 61.5z" />
    <glyph glyph-name="macron" unicode="&#xaf;" 
d="M94 488v50h278v-50h-278z" />
    <glyph glyph-name="degree" unicode="&#xb0;" horiz-adv-x="402" 
d="M372 571q0 -36 -13.5 -67t-36.5 -54t-54 -36.5t-67 -13.5t-67 13.5t-54 36.5t-36.5 54t-13.5 67t13.5 67t36.5 54t54 36.5t67 13.5t67 -13.5t54 -36.5t36.5 -54t13.5 -67zM314 571q0 24 -9 44.5t-24 35.5t-35.5 24t-44.5 9t-44.5 -9t-35.5 -24t-24 -35.5t-9 -44.5
t9 -44.5t24 -35.5t35.5 -24t44.5 -9t44.5 9t35.5 24t24 35.5t9 44.5z" />
    <glyph glyph-name="plusminus" unicode="&#xb1;" horiz-adv-x="653" 
d="M525 0v730h65v-730h-65zM374 348v-348h-65v348h-66v60h66v232q0 48 28 69.5t65 21.5h20t21 -1v-59q-7 1 -13 1h-10h-7q-17 -1 -28 -12t-11 -40v-212h70v-60h-70zM143 348v-348h-65v348h-66v60h66v232q0 48 28 69.5t65 21.5h20t21 -1v-59q-7 1 -13 1h-10h-7
q-17 -1 -28 -12t-11 -40v-212h70v-60h-70z" />
    <glyph glyph-name="twosuperior" unicode="&#xb2;" horiz-adv-x="428" 
d="M278 619q0 30 -20.5 46.5t-44.5 16.5q-29 0 -46.5 -19.5t-21.5 -52.5h-57q5 63 40 96.5t85 33.5q25 0 47.5 -8t40 -23.5t28 -38t10.5 -50.5q0 -26 -12 -49.5t-32 -47.5l-101 -121h150v-58h-273l176 214q16 19 23.5 32.5t7.5 28.5z" />
    <glyph glyph-name="threesuperior" unicode="&#xb3;" horiz-adv-x="436" 
d="M217 328q-45 0 -80.5 16.5t-61.5 44.5l39 44q45 -49 103 -49q37 0 58 20t21 49q0 33 -22.5 50t-58.5 17h-48v53h48q29 0 48.5 15t19.5 43q0 20 -16 36t-45 16q-57 0 -82 -46l-49 27q7 13 18.5 26.5t28 24.5t38 18t47.5 7q31 0 53.5 -9.5t37.5 -24.5t22 -34.5t7 -39.5
q0 -28 -12.5 -51t-37.5 -31q29 -7 46 -35.5t17 -60.5q0 -24 -8 -46.5t-25 -40.5t-43 -28.5t-63 -10.5z" />
    <glyph glyph-name="acute" unicode="&#xb4;" 
d="M223 488h-68l86 138h70z" />
    <glyph glyph-name="mu" unicode="&#xb5;" horiz-adv-x="730" 
d="M305 670v60h120v-60h-120zM670 305v120h60v-120h-60zM305 305v120h120v-120h-120zM0 305v120h60v-120h-60zM305 0v60h120v-60h-120z" />
    <glyph glyph-name="paragraph" unicode="&#xb6;" horiz-adv-x="663" 
d="M524 -179v848h-84v-848h-65v426h-103q-49 0 -93.5 19t-78.5 52t-53.5 76t-19.5 91q0 52 18.5 97t52.5 78t82 51.5t106 18.5h304v-909h-66zM375 669h-84q-43 0 -79 -13.5t-61 -37.5t-39 -56.5t-14 -70.5q0 -40 14 -73.5t39.5 -58t61 -38t78.5 -13.5h84v361z" />
    <glyph glyph-name="periodcentered" unicode="&#xb7;" horiz-adv-x="178" 
d="M53 312v96h72v-96h-72z" />
    <glyph glyph-name="cedilla" unicode="&#xb8;" 
d="M316 -103q0 -20 -9 -34.5t-23.5 -23.5t-33 -13.5t-37.5 -4.5q-28 0 -53 9.5t-42 22.5l23 28q13 -11 33.5 -17t39.5 -6q17 0 30.5 8t13.5 25q0 15 -12.5 23.5t-32.5 8.5q-21 0 -38 -7l-16 19l61 78h54l-45 -58q39 2 63 -14t24 -44z" />
    <glyph glyph-name="onesuperior" unicode="&#xb9;" horiz-adv-x="317" 
d="M142 636q-10 -11 -29.5 -18.5t-39.5 -9.5v59q58 8 83 63h45v-395h-59v301z" />
    <glyph glyph-name="ordmasculine" unicode="&#xba;" horiz-adv-x="476" 
d="M409 570q0 -38 -13 -71t-36.5 -57t-55 -37.5t-68.5 -13.5t-68.5 13t-54.5 36t-36.5 56t-13.5 72q0 36 13 68t35.5 56t54.5 37.5t69 13.5q38 0 69.5 -13.5t55 -36.5t36.5 -55t13 -68zM67 288v48h338v-48h-338zM352 568q0 55 -32.5 89t-84.5 34q-51 0 -83 -35t-32 -88
q0 -56 32 -91t83 -35q55 0 86 36t31 90z" />
    <glyph glyph-name="guillemotright" unicode="&#xbb;" horiz-adv-x="352" 
d="M180 56v71l86 84l-86 84v72l148 -139v-34zM36 56v71l86 84l-86 84v72l148 -139v-34z" />
    <glyph glyph-name="onequarter" unicode="&#xbc;" horiz-adv-x="830" 
d="M142 636q-10 -11 -29.5 -18.5t-39.5 -9.5v59q58 8 83 63h45v-395h-59v301zM184 0h-69l499 730h69zM692 0h-59v93h-166v41l181 257h44v-242h55v-56h-55v-93zM545 149h88v126z" />
    <glyph glyph-name="onehalf" unicode="&#xbd;" horiz-adv-x="864" 
d="M142 636q-10 -11 -29.5 -18.5t-39.5 -9.5v59q58 8 83 63h45v-395h-59v301zM184 0h-69l499 730h69zM716 275q0 30 -20.5 46.5t-44.5 16.5q-29 0 -46.5 -19.5t-21.5 -52.5h-57q5 63 40 96.5t85 33.5q25 0 47.5 -8t40 -23.5t28 -38t10.5 -50.5q0 -26 -12 -49.5t-32 -47.5
l-101 -121h150v-58h-273l176 214q16 19 23.5 32.5t7.5 28.5z" />
    <glyph glyph-name="threequarters" unicode="&#xbe;" horiz-adv-x="880" 
d="M217 328q-45 0 -80.5 16.5t-61.5 44.5l39 44q45 -49 103 -49q37 0 58 20t21 49q0 33 -22.5 50t-58.5 17h-48v53h48q29 0 48.5 15t19.5 43q0 20 -16 36t-45 16q-57 0 -82 -46l-49 27q7 13 18.5 26.5t28 24.5t38 18t47.5 7q31 0 53.5 -9.5t37.5 -24.5t22 -34.5t7 -39.5
q0 -28 -12.5 -51t-37.5 -31q29 -7 46 -35.5t17 -60.5q0 -24 -8 -46.5t-25 -40.5t-43 -28.5t-63 -10.5zM265 0h-69l499 730h69zM752 0h-59v93h-166v41l181 257h44v-242h55v-56h-55v-93zM605 149h88v126z" />
    <glyph glyph-name="questiondown" unicode="&#xbf;" horiz-adv-x="439" 
d="M205 634v96h71v-96h-71zM414 86q-65 -98 -183 -98q-44 0 -79.5 14t-61 38.5t-39 58.5t-13.5 73q0 32 8.5 59t22 52t30 48t33.5 46q29 41 51.5 87t22.5 98v24h69v-22q0 -35 -8.5 -66t-21.5 -58t-29.5 -52t-32.5 -48q-30 -42 -52 -79.5t-22 -82.5q0 -26 9 -49.5t25 -41
t38.5 -27.5t49.5 -10q44 0 77.5 21.5t56.5 58.5z" />
    <glyph glyph-name="Agrave" unicode="&#xc0;" horiz-adv-x="668" 
d="M544 0l-94 260h-254l-94 -260h-74l275 737h42l276 -737h-77zM323 614l-103 -290h206zM287 789l-88 138h70l86 -138h-68z" />
    <glyph glyph-name="Aacute" unicode="&#xc1;" horiz-adv-x="668" 
d="M544 0l-94 260h-254l-94 -260h-74l275 737h42l276 -737h-77zM323 614l-103 -290h206zM355 789h-68l86 138h70z" />
    <glyph glyph-name="Acircumflex" unicode="&#xc2;" horiz-adv-x="668" 
d="M544 0l-94 260h-254l-94 -260h-74l275 737h42l276 -737h-77zM323 614l-103 -290h206zM383 779l-61 84l-61 -84h-69l102 134h57l102 -134h-70z" />
    <glyph glyph-name="Atilde" unicode="&#xc3;" horiz-adv-x="668" 
d="M544 0l-94 260h-254l-94 -260h-74l275 737h42l276 -737h-77zM323 614l-103 -290h206zM466 884q-1 -42 -17.5 -69.5t-61.5 -27.5q-17 0 -35 8t-32 17q-14 8 -26 14t-23 6q-25 0 -27 -43h-56q2 41 18 69t62 28q17 0 34 -8t31 -16t27 -14.5t24 -6.5q25 0 27 43h55z" />
    <glyph glyph-name="Adieresis" unicode="&#xc4;" horiz-adv-x="668" 
d="M469 634v96h66v-96h-66zM113 634v96h66v-96h-66zM544 0l-94 260h-254l-94 -260h-74l275 737h42l276 -737h-77zM323 614l-103 -290h206z" />
    <glyph glyph-name="Aring" unicode="&#xc5;" horiz-adv-x="668" 
d="M544 0l-94 260h-254l-94 -260h-74l261 700q-30 11 -49.5 36.5t-19.5 60.5q0 21 8 40t22 33.5t33 22.5t41 8q21 0 40 -8t33.5 -22.5t22.5 -33.5t8 -40q0 -34 -19.5 -60t-49.5 -37l262 -700h-77zM381 797q0 24 -16.5 40.5t-40.5 16.5t-40.5 -16.5t-16.5 -40.5t16.5 -40.5
t40.5 -16.5t40.5 16.5t16.5 40.5zM323 614l-103 -290h206z" />
    <glyph glyph-name="AE" unicode="&#xc6;" horiz-adv-x="933" 
d="M477 0v238h-246l-147 -238h-76l450 730h405v-64h-316v-262h296v-64h-296v-276h335v-64h-405zM477 647l-205 -345h205v345z" />
    <glyph glyph-name="Ccedilla" unicode="&#xc7;" horiz-adv-x="721" 
d="M681 121q-19 -24 -44.5 -47t-58 -41t-71.5 -30t-84 -14l-26 -34q39 2 63 -14t24 -44q0 -20 -9 -34.5t-23.5 -23.5t-33 -13.5t-37.5 -4.5q-27 0 -52 9.5t-42 22.5l22 28q13 -11 33.5 -17t39.5 -6q18 0 31 8t13 25q0 15 -12 23.5t-33 8.5t-38 -7l-16 19l43 54
q-66 6 -125 36t-103.5 79.5t-70.5 115.5t-26 145q0 77 27 145t75 120t113.5 82t141.5 30q90 0 155.5 -30.5t109.5 -84.5l-51 -45q-40 44 -93 68.5t-121 24.5q-61 0 -113 -24t-90 -65.5t-59.5 -97.5t-21.5 -120q0 -71 23.5 -129t63 -99t91 -63t106.5 -22q70 0 125.5 27.5
t103.5 80.5z" />
    <glyph glyph-name="Egrave" unicode="&#xc8;" horiz-adv-x="534" 
d="M78 0v730h386v-64h-317v-262h297v-64h-297v-276h336v-64h-405zM244 789l-88 138h70l86 -138h-68z" />
    <glyph glyph-name="Eacute" unicode="&#xc9;" horiz-adv-x="534" 
d="M78 0v730h386v-64h-317v-262h297v-64h-297v-276h336v-64h-405zM284 789h-68l86 138h70z" />
    <glyph glyph-name="Ecircumflex" unicode="&#xca;" horiz-adv-x="534" 
d="M78 0v730h386v-64h-317v-262h297v-64h-297v-276h336v-64h-405zM329 789l-61 84l-61 -84h-69l102 134h57l102 -134h-70z" />
    <glyph glyph-name="Edieresis" unicode="&#xcb;" horiz-adv-x="534" 
d="M78 0v730h386v-64h-317v-262h297v-64h-297v-276h336v-64h-405zM315 789v96h66v-96h-66zM158 789v96h66v-96h-66z" />
    <glyph glyph-name="Igrave" unicode="&#xcc;" horiz-adv-x="225" 
d="M78 0v730h69v-730h-69zM79 789l-88 138h70l86 -138h-68z" />
    <glyph glyph-name="Iacute" unicode="&#xcd;" horiz-adv-x="225" 
d="M78 0v730h69v-730h-69zM147 790h-68l86 138h70z" />
    <glyph glyph-name="Icircumflex" unicode="&#xce;" horiz-adv-x="225" 
d="M78 0v730h69v-730h-69zM173 786l-61 84l-61 -84h-69l102 134h57l102 -134h-70z" />
    <glyph glyph-name="Idieresis" unicode="&#xcf;" horiz-adv-x="225" 
d="M78 0v730h69v-730h-69zM158 789v96h66v-96h-66zM1 789v96h66v-96h-66z" />
    <glyph glyph-name="Eth" unicode="&#xd0;" horiz-adv-x="696" 
d="M651 370q0 -82 -28.5 -150.5t-80 -117t-123 -75.5t-156.5 -27h-162v338h-64v64h64v328h166q85 0 155.5 -25.5t121.5 -73t79 -114t28 -147.5zM579 369q0 66 -23 121t-63.5 94.5t-96.5 61.5t-123 22h-102v-266h168v-64h-168v-276h93q74 0 132.5 24t99 65.5t62 97.5
t21.5 120z" />
    <glyph glyph-name="Ntilde" unicode="&#xd1;" horiz-adv-x="727" 
d="M584 0l-437 612v-612h-69v730h69l432 -607v607h70v-730h-65zM512 866q-1 -42 -17.5 -69.5t-61.5 -27.5q-17 0 -35 8t-32 17q-14 8 -26 14t-23 6q-25 0 -27 -43h-56q2 41 18 69t62 28q17 0 34 -8t31 -16t27 -14.5t24 -6.5q25 0 27 43h55z" />
    <glyph glyph-name="Ograve" unicode="&#xd2;" horiz-adv-x="823" 
d="M778 366q0 -80 -28.5 -149t-78 -120t-116 -80t-143.5 -29t-144 28.5t-116.5 79.5t-78 120t-28.5 150q0 80 28 148.5t77 119t116 79.5t144 29q80 0 147.5 -29t116.5 -79.5t76.5 -119t27.5 -148.5zM705 367q0 66 -22 122t-61.5 97.5t-93.5 65t-118 23.5q-63 0 -116.5 -23.5
t-92.5 -65t-61 -98t-22 -122.5q0 -67 23 -124t63 -98.5t93.5 -65t114.5 -23.5t114.5 23t93 64.5t62.5 98.5t23 126zM376 789l-88 138h70l86 -138h-68z" />
    <glyph glyph-name="Oacute" unicode="&#xd3;" horiz-adv-x="823" 
d="M778 366q0 -80 -28.5 -149t-78 -120t-116 -80t-143.5 -29t-144 28.5t-116.5 79.5t-78 120t-28.5 150q0 80 28 148.5t77 119t116 79.5t144 29q80 0 147.5 -29t116.5 -79.5t76.5 -119t27.5 -148.5zM705 367q0 66 -22 122t-61.5 97.5t-93.5 65t-118 23.5q-63 0 -116.5 -23.5
t-92.5 -65t-61 -98t-22 -122.5q0 -67 23 -124t63 -98.5t93.5 -65t114.5 -23.5t114.5 23t93 64.5t62.5 98.5t23 126zM434 789h-68l86 138h70z" />
    <glyph glyph-name="Ocircumflex" unicode="&#xd4;" horiz-adv-x="823" 
d="M778 366q0 -80 -28.5 -149t-78 -120t-116 -80t-143.5 -29t-144 28.5t-116.5 79.5t-78 120t-28.5 150q0 80 28 148.5t77 119t116 79.5t144 29q80 0 147.5 -29t116.5 -79.5t76.5 -119t27.5 -148.5zM705 367q0 66 -22 122t-61.5 97.5t-93.5 65t-118 23.5q-63 0 -116.5 -23.5
t-92.5 -65t-61 -98t-22 -122.5q0 -67 23 -124t63 -98.5t93.5 -65t114.5 -23.5t114.5 23t93 64.5t62.5 98.5t23 126zM467 789l-61 84l-61 -84h-69l102 134h57l102 -134h-70z" />
    <glyph glyph-name="Otilde" unicode="&#xd5;" horiz-adv-x="823" 
d="M778 366q0 -80 -28.5 -149t-78 -120t-116 -80t-143.5 -29t-144 28.5t-116.5 79.5t-78 120t-28.5 150q0 80 28 148.5t77 119t116 79.5t144 29q80 0 147.5 -29t116.5 -79.5t76.5 -119t27.5 -148.5zM705 367q0 66 -22 122t-61.5 97.5t-93.5 65t-118 23.5q-63 0 -116.5 -23.5
t-92.5 -65t-61 -98t-22 -122.5q0 -67 23 -124t63 -98.5t93.5 -65t114.5 -23.5t114.5 23t93 64.5t62.5 98.5t23 126zM546 892q-1 -42 -17.5 -69.5t-61.5 -27.5q-17 0 -35 8t-32 17q-14 8 -26 14t-23 6q-25 0 -27 -43h-56q2 41 18 69t62 28q17 0 34 -8t31 -16t27 -14.5
t24 -6.5q25 0 27 43h55z" />
    <glyph glyph-name="Odieresis" unicode="&#xd6;" horiz-adv-x="823" 
d="M724 634v96h66v-96h-66zM32 634v96h67v-96h-67zM778 366q0 -80 -28.5 -149t-78 -120t-116 -80t-143.5 -29t-144 28.5t-116.5 79.5t-78 120t-28.5 150q0 80 28 148.5t77 119t116 79.5t144 29q80 0 147.5 -29t116.5 -79.5t76.5 -119t27.5 -148.5zM705 367q0 66 -22 122
t-61.5 97.5t-93.5 65t-118 23.5q-63 0 -116.5 -23.5t-92.5 -65t-61 -98t-22 -122.5q0 -67 23 -124t63 -98.5t93.5 -65t114.5 -23.5t114.5 23t93 64.5t62.5 98.5t23 126z" />
    <glyph glyph-name="multiply" unicode="&#xd7;" horiz-adv-x="483" 
d="M54 188l141 141l-141 141l46 46l141 -141l141 141l46 -46l-141 -141l141 -141l-46 -46l-141 141l-141 -141z" />
    <glyph glyph-name="Oslash" unicode="&#xd8;" horiz-adv-x="823" 
d="M778 366q0 -80 -28.5 -149t-78 -120t-116 -80t-143.5 -29q-69 0 -130.5 23t-109.5 65l-77 -83l-39 36l79 85q-42 50 -66 114t-24 138q0 80 28 148.5t77 119t116 79.5t144 29q69 0 128.5 -22t107.5 -61l77 83l40 -35l-80 -85q45 -50 70 -115t25 -141zM597 609
q-37 32 -84 49t-103 17q-63 0 -116.5 -23.5t-92.5 -65t-61 -98t-22 -122.5q0 -59 17.5 -109.5t49.5 -89.5zM705 367q0 60 -18.5 112t-51.5 93l-414 -444q39 -35 88 -54t103 -19q61 0 114.5 23t93 64.5t62.5 98.5t23 126z" />
    <glyph glyph-name="Ugrave" unicode="&#xd9;" horiz-adv-x="689" 
d="M616 270q0 -64 -21 -116t-57.5 -89t-86.5 -57t-107 -20q-58 0 -107.5 19.5t-86 56.5t-57 89t-20.5 117v460h70v-460q0 -51 16 -91.5t43.5 -68.5t64 -42.5t77.5 -14.5t77.5 14.5t64.5 42.5t44.5 68.5t16.5 91.5v460h69v-460zM324 779l-88 138h70l86 -138h-68z" />
    <glyph glyph-name="Uacute" unicode="&#xda;" horiz-adv-x="689" 
d="M616 270q0 -64 -21 -116t-57.5 -89t-86.5 -57t-107 -20q-58 0 -107.5 19.5t-86 56.5t-57 89t-20.5 117v460h70v-460q0 -51 16 -91.5t43.5 -68.5t64 -42.5t77.5 -14.5t77.5 14.5t64.5 42.5t44.5 68.5t16.5 91.5v460h69v-460zM355 779h-68l86 138h70z" />
    <glyph glyph-name="Ucircumflex" unicode="&#xdb;" horiz-adv-x="689" 
d="M616 270q0 -64 -21 -116t-57.5 -89t-86.5 -57t-107 -20q-58 0 -107.5 19.5t-86 56.5t-57 89t-20.5 117v460h70v-460q0 -51 16 -91.5t43.5 -68.5t64 -42.5t77.5 -14.5t77.5 14.5t64.5 42.5t44.5 68.5t16.5 91.5v460h69v-460zM406 779l-61 84l-61 -84h-69l102 134h57
l102 -134h-70z" />
    <glyph glyph-name="Udieresis" unicode="&#xdc;" horiz-adv-x="689" 
d="M389 634v96h66v-96h-66zM234 634v96h66v-96h-66zM616 270q0 -64 -21 -116t-57.5 -89t-86.5 -57t-107 -20q-58 0 -107.5 19.5t-86 56.5t-57 89t-20.5 117v460h70v-460q0 -51 16 -91.5t43.5 -68.5t64 -42.5t77.5 -14.5t77.5 14.5t64.5 42.5t44.5 68.5t16.5 91.5v460h69
v-460z" />
    <glyph glyph-name="Yacute" unicode="&#xdd;" horiz-adv-x="636" 
d="M351 344v-344h-70v345l-257 385h81l214 -318l213 318h79zM341 779h-68l86 138h70z" />
    <glyph glyph-name="Thorn" unicode="&#xde;" horiz-adv-x="540" 
d="M505 380q0 -45 -16.5 -84.5t-47 -69t-73 -46t-95.5 -16.5h-126v-164h-69v730h69v-140h117q59 0 103.5 -16t75.5 -44t46.5 -66.5t15.5 -83.5zM433 381q0 69 -44.5 107t-135.5 38h-106v-298h119q84 0 125.5 43t41.5 110z" />
    <glyph glyph-name="germandbls" unicode="&#xdf;" horiz-adv-x="459" 
d="M426 174q0 -38 -11 -72t-32 -59.5t-51 -40t-68 -14.5q-26 0 -46.5 5t-34.5 13l10 57q26 -15 67 -15q44 0 71 33.5t27 89.5q0 47 -15 86t-39 68.5t-53.5 48t-58.5 24.5v47h4q24 1 47.5 10t43 25.5t31.5 41t12 56.5q0 51 -27.5 79.5t-77.5 28.5q-45 0 -71 -31t-26 -88v-567
h-65v563q0 81 41 130t122 49q36 0 67 -10.5t53.5 -31t35.5 -50.5t13 -69q0 -59 -31.5 -102t-83.5 -61q28 -12 54 -36t46.5 -56t33 -71t12.5 -81z" />
    <glyph glyph-name="agrave" unicode="&#xe0;" horiz-adv-x="442" 
d="M322 0v39q-27 -23 -62 -37t-78 -14q-69 0 -109 36t-40 96q0 72 59.5 109t157.5 37h73v18q0 48 -28 63.5t-72 15.5q-75 0 -124 -26l-24 50q28 17 66.5 25t76.5 8q85 0 127 -31.5t42 -91.5v-297h-65zM322 211h-55q-82 0 -124.5 -21t-42.5 -70q0 -37 28.5 -55t65.5 -18
q38 0 69.5 13.5t58.5 34.5v116zM199 488l-88 138h70l86 -138h-68z" />
    <glyph glyph-name="aacute" unicode="&#xe1;" horiz-adv-x="442" 
d="M322 0v39q-27 -23 -62 -37t-78 -14q-69 0 -109 36t-40 96q0 72 59.5 109t157.5 37h73v18q0 48 -28 63.5t-72 15.5q-75 0 -124 -26l-24 50q28 17 66.5 25t76.5 8q85 0 127 -31.5t42 -91.5v-297h-65zM322 211h-55q-82 0 -124.5 -21t-42.5 -70q0 -37 28.5 -55t65.5 -18
q38 0 69.5 13.5t58.5 34.5v116zM239 488h-68l86 138h70z" />
    <glyph glyph-name="acircumflex" unicode="&#xe2;" horiz-adv-x="442" 
d="M322 0v39q-27 -23 -62 -37t-78 -14q-69 0 -109 36t-40 96q0 72 59.5 109t157.5 37h73v18q0 48 -28 63.5t-72 15.5q-75 0 -124 -26l-24 50q28 17 66.5 25t76.5 8q85 0 127 -31.5t42 -91.5v-297h-65zM322 211h-55q-82 0 -124.5 -21t-42.5 -70q0 -37 28.5 -55t65.5 -18
q38 0 69.5 13.5t58.5 34.5v116zM282 488l-61 84l-61 -84h-69l102 134h57l102 -134h-70z" />
    <glyph glyph-name="atilde" unicode="&#xe3;" horiz-adv-x="442" 
d="M322 0v39q-27 -23 -62 -37t-78 -14q-69 0 -109 36t-40 96q0 72 59.5 109t157.5 37h73v18q0 48 -28 63.5t-72 15.5q-75 0 -124 -26l-24 50q28 17 66.5 25t76.5 8q85 0 127 -31.5t42 -91.5v-297h-65zM322 211h-55q-82 0 -124.5 -21t-42.5 -70q0 -37 28.5 -55t65.5 -18
q38 0 69.5 13.5t58.5 34.5v116zM364 583q-1 -42 -17.5 -69.5t-61.5 -27.5q-17 0 -35 8t-32 17q-14 8 -26 14t-23 6q-25 0 -27 -43h-56q2 41 18 69t62 28q17 0 34 -8t31 -16t27 -14.5t24 -6.5q25 0 27 43h55z" />
    <glyph glyph-name="adieresis" unicode="&#xe4;" horiz-adv-x="442" 
d="M322 0v39q-27 -23 -62 -37t-78 -14q-69 0 -109 36t-40 96q0 72 59.5 109t157.5 37h73v18q0 48 -28 63.5t-72 15.5q-75 0 -124 -26l-24 50q28 17 66.5 25t76.5 8q85 0 127 -31.5t42 -91.5v-297h-65zM322 211h-55q-82 0 -124.5 -21t-42.5 -70q0 -37 28.5 -55t65.5 -18
q38 0 69.5 13.5t58.5 34.5v116zM267 488v96h66v-96h-66zM110 488v96h66v-96h-66z" />
    <glyph glyph-name="aring" unicode="&#xe5;" horiz-adv-x="442" 
d="M322 0v39q-27 -23 -62 -37t-78 -14q-69 0 -109 36t-40 96q0 72 59.5 109t157.5 37h73v18q0 48 -28 63.5t-72 15.5q-75 0 -124 -26l-24 50q28 17 66.5 25t76.5 8q85 0 127 -31.5t42 -91.5v-297h-65zM322 211h-55q-82 0 -124.5 -21t-42.5 -70q0 -37 28.5 -55t65.5 -18
q38 0 69.5 13.5t58.5 34.5v116zM328 585q0 -22 -8 -41t-22 -33t-33 -22t-41 -8q-21 0 -40 8t-33 22t-22 33t-8 41q0 21 8 40t22 33t33 22t40 8q22 0 41 -8t33 -22t22 -33t8 -40zM283 585q0 24 -17 41t-42 17q-24 0 -41 -17t-17 -41q0 -25 17 -42t41 -17q25 0 42 17t17 42z
" />
    <glyph glyph-name="ae" unicode="&#xe6;" horiz-adv-x="744" 
d="M388 202q0 -32 10 -60.5t28.5 -49.5t45 -33t60.5 -12q47 0 76.5 15t56.5 41l41 -40q-29 -29 -71 -52t-105 -23q-57 0 -99 24.5t-66 62.5q-32 -40 -78 -63.5t-105 -23.5q-69 0 -109 36t-40 96q0 69 56.5 101.5t150.5 32.5h85v19q0 54 -29 72t-73 18q-75 0 -124 -26l-24 50
q28 17 66.5 25t76.5 8q128 0 153 -76q23 35 63 55.5t90 20.5q47 0 82 -17.5t58.5 -47.5t36 -69.5t13.5 -83.5h-326zM640 254q-3 21 -12 40t-23.5 34t-35.5 24t-48 9q-56 0 -89 -31t-41 -76h249zM334 149q-9 24 -9 53h-68q-78 0 -118 -18.5t-40 -63.5q0 -37 27 -56t64 -19
q24 0 47 7.5t42.5 21t34 32.5t20.5 43z" />
    <glyph glyph-name="ccedilla" unicode="&#xe7;" horiz-adv-x="442" 
d="M419 88q-26 -38 -65 -65.5t-89 -33.5l-26 -34q38 2 62 -14t24 -44q0 -20 -9 -34.5t-23.5 -23.5t-33 -13.5t-37.5 -4.5q-27 0 -52 9.5t-42 22.5l22 28q13 -11 33.5 -17t39.5 -6q18 0 31 8t13 25q0 15 -12 23.5t-33 8.5t-38 -7l-16 19l43 55q-41 5 -73.5 23.5t-55.5 47
t-35.5 65.5t-12.5 79q0 44 15 83t42 68.5t64 46.5t81 17q34 0 61.5 -8t49 -20.5t37.5 -28t27 -29.5l-49 -38q-20 26 -49.5 44.5t-72.5 18.5q-31 0 -57 -12.5t-44 -33.5t-28 -48t-10 -57q0 -35 10.5 -64.5t28.5 -50.5t43.5 -33t55.5 -12q44 0 75.5 20t57.5 55z" />
    <glyph glyph-name="egrave" unicode="&#xe8;" horiz-adv-x="465" 
d="M100 202q1 -33 11 -61t28.5 -48.5t45 -32.5t60.5 -12q46 0 78.5 15t60.5 41l42 -41q-29 -29 -73 -52t-110 -23q-49 0 -87.5 17t-65.5 46.5t-41.5 70t-14.5 87.5q0 42 14 80t40.5 67.5t64.5 46.5t85 17q48 0 84 -17.5t61 -47.5t37.5 -69.5t13.5 -83.5h-334zM361 254
q-4 21 -14 40t-25.5 34t-37.5 24t-49 9q-57 0 -90.5 -31t-41.5 -76h258zM204 488l-88 138h70l86 -138h-68z" />
    <glyph glyph-name="eacute" unicode="&#xe9;" horiz-adv-x="465" 
d="M100 202q1 -33 11 -61t28.5 -48.5t45 -32.5t60.5 -12q46 0 78.5 15t60.5 41l42 -41q-29 -29 -73 -52t-110 -23q-49 0 -87.5 17t-65.5 46.5t-41.5 70t-14.5 87.5q0 42 14 80t40.5 67.5t64.5 46.5t85 17q48 0 84 -17.5t61 -47.5t37.5 -69.5t13.5 -83.5h-334zM361 254
q-4 21 -14 40t-25.5 34t-37.5 24t-49 9q-57 0 -90.5 -31t-41.5 -76h258zM256 488h-68l86 138h70z" />
    <glyph glyph-name="ecircumflex" unicode="&#xea;" horiz-adv-x="465" 
d="M100 202q1 -33 11 -61t28.5 -48.5t45 -32.5t60.5 -12q46 0 78.5 15t60.5 41l42 -41q-29 -29 -73 -52t-110 -23q-49 0 -87.5 17t-65.5 46.5t-41.5 70t-14.5 87.5q0 42 14 80t40.5 67.5t64.5 46.5t85 17q48 0 84 -17.5t61 -47.5t37.5 -69.5t13.5 -83.5h-334zM361 254
q-4 21 -14 40t-25.5 34t-37.5 24t-49 9q-57 0 -90.5 -31t-41.5 -76h258zM295 483l-61 84l-61 -84h-69l102 134h57l102 -134h-70z" />
    <glyph glyph-name="edieresis" unicode="&#xeb;" horiz-adv-x="465" 
d="M100 202q1 -33 11 -61t28.5 -48.5t45 -32.5t60.5 -12q46 0 78.5 15t60.5 41l42 -41q-29 -29 -73 -52t-110 -23q-49 0 -87.5 17t-65.5 46.5t-41.5 70t-14.5 87.5q0 42 14 80t40.5 67.5t64.5 46.5t85 17q48 0 84 -17.5t61 -47.5t37.5 -69.5t13.5 -83.5h-334zM361 254
q-4 21 -14 40t-25.5 34t-37.5 24t-49 9q-57 0 -90.5 -31t-41.5 -76h258zM279 488v96h66v-96h-66zM122 488v96h66v-96h-66z" />
    <glyph glyph-name="igrave" unicode="&#xec;" horiz-adv-x="191" 
d="M63 0v408h65v-408h-65zM61 488l-88 138h70l86 -138h-68z" />
    <glyph glyph-name="iacute" unicode="&#xed;" horiz-adv-x="191" 
d="M63 0v408h65v-408h-65zM129 488h-68l86 138h70z" />
    <glyph glyph-name="icircumflex" unicode="&#xee;" horiz-adv-x="191" 
d="M63 0v408h65v-408h-65zM155 482l-61 84l-61 -84h-69l102 134h57l102 -134h-70z" />
    <glyph glyph-name="idieresis" unicode="&#xef;" horiz-adv-x="191" 
d="M63 0v408h65v-408h-65zM141 488v96h66v-96h-66zM-16 488v96h66v-96h-66z" />
    <glyph glyph-name="eth" unicode="&#xf0;" horiz-adv-x="499" 
d="M465 212q0 -39 -13 -78.5t-40 -72t-68 -53t-98 -20.5q-45 0 -83.5 15.5t-67 45t-45 70.5t-16.5 92q0 42 16.5 80t45 66.5t67.5 45.5t85 17q41 0 75 -15t58 -44q-8 42 -32.5 100.5t-69.5 118.5l-121 -49l-24 48l112 45q-21 25 -44.5 48.5t-49.5 44.5l32 32
q63 -44 114 -104l73 30l23 -48l-61 -25q66 -90 99 -192t33 -198zM397 205q0 35 -11 63t-31 48.5t-47.5 31.5t-59.5 11t-59 -11.5t-46.5 -32.5t-30.5 -49t-11 -61q0 -34 11 -63t30.5 -50t46 -32.5t58.5 -11.5q35 0 62.5 12t47 33t30 49.5t10.5 62.5z" />
    <glyph glyph-name="ntilde" unicode="&#xf1;" horiz-adv-x="461" 
d="M341 0v260q0 44 -24 72t-72 28q-28 0 -50 -11.5t-37 -29.5t-22.5 -40t-7.5 -43v-236h-65v408h65v-59q19 33 52.5 52t74.5 19q69 0 110 -40.5t41 -108.5v-271h-65zM371 583q-1 -42 -17.5 -69.5t-61.5 -27.5q-17 0 -35 8t-32 17q-14 8 -26 14t-23 6q-25 0 -27 -43h-56
q2 41 18 69t62 28q17 0 34 -8t31 -16t27 -14.5t24 -6.5q25 0 27 43h55z" />
    <glyph glyph-name="ograve" unicode="&#xf2;" horiz-adv-x="493" 
d="M459 207q0 -47 -16.5 -87t-45 -69.5t-67.5 -46t-84 -16.5t-83.5 16t-67 44.5t-45 68.5t-16.5 88q0 45 15.5 84t43.5 68.5t67 46t85 16.5t85.5 -16.5t68 -45t44.5 -67.5t16 -84zM392 205q0 69 -41 111.5t-106 42.5q-32 0 -58.5 -11.5t-45.5 -32.5t-29.5 -49t-10.5 -61
q0 -34 10.5 -63t29.5 -50t45.5 -32.5t58.5 -11.5q34 0 61.5 12t46.5 33t29 49.5t10 62.5zM212 488l-88 138h70l86 -138h-68z" />
    <glyph glyph-name="oacute" unicode="&#xf3;" horiz-adv-x="493" 
d="M459 207q0 -47 -16.5 -87t-45 -69.5t-67.5 -46t-84 -16.5t-83.5 16t-67 44.5t-45 68.5t-16.5 88q0 45 15.5 84t43.5 68.5t67 46t85 16.5t85.5 -16.5t68 -45t44.5 -67.5t16 -84zM392 205q0 69 -41 111.5t-106 42.5q-32 0 -58.5 -11.5t-45.5 -32.5t-29.5 -49t-10.5 -61
q0 -34 10.5 -63t29.5 -50t45.5 -32.5t58.5 -11.5q34 0 61.5 12t46.5 33t29 49.5t10 62.5zM265 488h-68l86 138h70z" />
    <glyph glyph-name="ocircumflex" unicode="&#xf4;" horiz-adv-x="493" 
d="M459 207q0 -47 -16.5 -87t-45 -69.5t-67.5 -46t-84 -16.5t-83.5 16t-67 44.5t-45 68.5t-16.5 88q0 45 15.5 84t43.5 68.5t67 46t85 16.5t85.5 -16.5t68 -45t44.5 -67.5t16 -84zM392 205q0 69 -41 111.5t-106 42.5q-32 0 -58.5 -11.5t-45.5 -32.5t-29.5 -49t-10.5 -61
q0 -34 10.5 -63t29.5 -50t45.5 -32.5t58.5 -11.5q34 0 61.5 12t46.5 33t29 49.5t10 62.5zM302 484l-61 84l-61 -84h-69l102 134h57l102 -134h-70z" />
    <glyph glyph-name="otilde" unicode="&#xf5;" horiz-adv-x="493" 
d="M459 207q0 -47 -16.5 -87t-45 -69.5t-67.5 -46t-84 -16.5t-83.5 16t-67 44.5t-45 68.5t-16.5 88q0 45 15.5 84t43.5 68.5t67 46t85 16.5t85.5 -16.5t68 -45t44.5 -67.5t16 -84zM392 205q0 69 -41 111.5t-106 42.5q-32 0 -58.5 -11.5t-45.5 -32.5t-29.5 -49t-10.5 -61
q0 -34 10.5 -63t29.5 -50t45.5 -32.5t58.5 -11.5q34 0 61.5 12t46.5 33t29 49.5t10 62.5zM381 583q-1 -42 -17.5 -69.5t-61.5 -27.5q-17 0 -35 8t-32 17q-14 8 -26 14t-23 6q-25 0 -27 -43h-56q2 41 18 69t62 28q17 0 34 -8t31 -16t27 -14.5t24 -6.5q25 0 27 43h55z" />
    <glyph glyph-name="odieresis" unicode="&#xf6;" horiz-adv-x="493" 
d="M459 207q0 -47 -16.5 -87t-45 -69.5t-67.5 -46t-84 -16.5t-83.5 16t-67 44.5t-45 68.5t-16.5 88q0 45 15.5 84t43.5 68.5t67 46t85 16.5t85.5 -16.5t68 -45t44.5 -67.5t16 -84zM392 205q0 69 -41 111.5t-106 42.5q-32 0 -58.5 -11.5t-45.5 -32.5t-29.5 -49t-10.5 -61
q0 -34 10.5 -63t29.5 -50t45.5 -32.5t58.5 -11.5q34 0 61.5 12t46.5 33t29 49.5t10 62.5zM286 488v96h66v-96h-66zM129 488v96h66v-96h-66z" />
    <glyph glyph-name="divide" unicode="&#xf7;" horiz-adv-x="730" 
d="M305 670v60h120v-60h-120zM670 305v120h60v-120h-60zM305 305v120h120v-120h-120zM0 305v120h60v-120h-60zM305 0v60h120v-60h-120z" />
    <glyph glyph-name="oslash" unicode="&#xf8;" horiz-adv-x="493" 
d="M416 338q20 -27 31.5 -60t11.5 -71q0 -47 -16.5 -87t-45 -69.5t-67.5 -46t-84 -16.5q-78 0 -134 45l-44 -45l-33 33l45 45q-22 27 -34 62t-12 77q0 45 15.5 84t43.5 68.5t67 46t85 16.5q41 0 76 -13t63 -36l48 49l34 -32zM339 327q-38 32 -94 32q-32 0 -58.5 -11.5
t-45.5 -32.5t-29.5 -49t-10.5 -61q0 -26 7 -49.5t19 -42.5zM392 205q0 25 -6 46.5t-17 38.5l-212 -213q17 -14 39.5 -21.5t48.5 -7.5q34 0 61.5 12t46.5 33t29 49.5t10 62.5z" />
    <glyph glyph-name="ugrave" unicode="&#xf9;" horiz-adv-x="463" 
d="M335 0v59q-18 -32 -51.5 -51.5t-76.5 -19.5q-72 0 -111 40t-39 109v271h65v-260q0 -42 24.5 -71.5t71.5 -29.5q27 0 49 11.5t37 29.5t23 40.5t8 43.5v236h65v-408h-65zM212 487l-88 138h70l86 -138h-68z" />
    <glyph glyph-name="uacute" unicode="&#xfa;" horiz-adv-x="463" 
d="M335 0v59q-18 -32 -51.5 -51.5t-76.5 -19.5q-72 0 -111 40t-39 109v271h65v-260q0 -42 24.5 -71.5t71.5 -29.5q27 0 49 11.5t37 29.5t23 40.5t8 43.5v236h65v-408h-65zM246 487h-68l86 138h70z" />
    <glyph glyph-name="ucircumflex" unicode="&#xfb;" horiz-adv-x="463" 
d="M335 0v59q-18 -32 -51.5 -51.5t-76.5 -19.5q-72 0 -111 40t-39 109v271h65v-260q0 -42 24.5 -71.5t71.5 -29.5q27 0 49 11.5t37 29.5t23 40.5t8 43.5v236h65v-408h-65zM290 487l-61 84l-61 -84h-69l102 134h57l102 -134h-70z" />
    <glyph glyph-name="udieresis" unicode="&#xfc;" horiz-adv-x="463" 
d="M335 0v59q-18 -32 -51.5 -51.5t-76.5 -19.5q-72 0 -111 40t-39 109v271h65v-260q0 -42 24.5 -71.5t71.5 -29.5q27 0 49 11.5t37 29.5t23 40.5t8 43.5v236h65v-408h-65zM275 485v96h66v-96h-66zM118 485v96h66v-96h-66z" />
    <glyph glyph-name="yacute" unicode="&#xfd;" horiz-adv-x="409" 
d="M203 -92q-14 -38 -39.5 -65.5t-73.5 -27.5q-35 0 -63 11v61q23 -12 46 -12q18 0 30.5 6t21 16.5t14.5 24t12 28.5l19 48l-155 410h70l123 -323l118 323h68zM233 488h-68l86 138h70z" />
    <glyph glyph-name="thorn" unicode="&#xfe;" horiz-adv-x="489" 
d="M455 208q0 -48 -15 -88.5t-40.5 -70t-60.5 -45.5t-75 -16q-49 0 -84 25t-52 55v-247h-65v909h65v-390q20 33 57 56.5t84 23.5q42 0 76.5 -17t59 -45.5t37.5 -67t13 -82.5zM388 204q0 31 -8 59t-24.5 49.5t-41 34t-56.5 12.5q-29 0 -53.5 -12.5t-42.5 -33.5t-28 -49
t-10 -60q0 -29 9.5 -57t27 -50t42 -35.5t53.5 -13.5q62 0 97 43.5t35 112.5z" />
    <glyph glyph-name="ydieresis" unicode="&#xff;" horiz-adv-x="409" 
d="M203 -92q-14 -38 -39.5 -65.5t-73.5 -27.5q-35 0 -63 11v61q23 -12 46 -12q18 0 30.5 6t21 16.5t14.5 24t12 28.5l19 48l-155 410h70l123 -323l118 323h68zM250 482v96h66v-96h-66zM93 482v96h66v-96h-66z" />
    <glyph glyph-name="dotlessi" unicode="&#x131;" horiz-adv-x="191" 
d="M63 0v408h65v-408h-65z" />
    <glyph glyph-name="Lslash" unicode="&#x141;" horiz-adv-x="501" 
d="M97 0v289l-47 -19l-26 58l73 30v372h69v-344l154 62l26 -59l-180 -72v-253h308v-64h-377z" />
    <glyph glyph-name="lslash" unicode="&#x142;" horiz-adv-x="247" 
d="M154 321v-321h-65v295l-51 -21l-25 54l76 31v371h65v-345l56 23l23 -55z" />
    <glyph glyph-name="OE" unicode="&#x152;" horiz-adv-x="1161" 
d="M704 0v141q-48 -70 -124 -111.5t-168 -41.5q-77 0 -144 28.5t-116.5 79.5t-78 120t-28.5 150q0 80 28 148.5t77 119t116 79.5t144 29q94 0 170 -40.5t124 -109.5v138h387v-64h-317v-262h296v-64h-296v-276h336v-64h-406zM705 367q0 66 -22 122t-61.5 97.5t-93.5 65
t-118 23.5q-63 0 -116.5 -23.5t-92.5 -65t-61 -98t-22 -122.5q0 -67 23 -124t63 -98.5t93.5 -65t114.5 -23.5t114.5 23t93 64.5t62.5 98.5t23 126z" />
    <glyph glyph-name="oe" unicode="&#x153;" horiz-adv-x="810" 
d="M451 202q0 -68 38 -111.5t106 -43.5q46 0 76.5 15t59.5 41l40 -40q-29 -29 -72 -52t-106 -23t-107 28.5t-67 74.5q-23 -48 -70.5 -75.5t-105.5 -27.5q-45 0 -83.5 16t-66 44.5t-43.5 68.5t-16 88q0 45 15 84t42.5 68.5t66 46t84.5 16.5q58 0 105 -26.5t71 -73.5
q23 45 67.5 72.5t104.5 27.5q45 0 80 -17.5t59 -47.5t36.5 -69.5t13.5 -83.5h-328zM705 254q-3 21 -12.5 40t-24.5 34t-35.5 24t-47.5 9q-57 0 -90 -31t-41 -76h251zM387 205q0 69 -39.5 111.5t-105.5 42.5q-32 0 -58 -11.5t-44.5 -32.5t-28.5 -49t-10 -61q0 -69 38.5 -113
t102.5 -44q34 0 61 12t45.5 33t28.5 49.5t10 62.5z" />
    <glyph glyph-name="Scaron" unicode="&#x160;" horiz-adv-x="499" 
d="M460 183q0 -45 -17.5 -81t-46.5 -61.5t-68 -39t-81 -13.5q-54 0 -106 18.5t-96 56.5l42 52q32 -28 73 -44t85 -16q30 0 56 8.5t45.5 24.5t30.5 39t11 52q0 32 -12.5 56t-33 43t-47 34t-54.5 30q-35 18 -69 37t-61 44t-43.5 58.5t-16.5 79.5q0 41 14.5 74t41 57t62 37
t77.5 13q57 0 103.5 -16.5t87.5 -54.5l-43 -53q-32 32 -66.5 44.5t-81.5 12.5q-24 0 -46 -7t-39 -21.5t-27 -35t-10 -47.5q0 -33 12 -56t33 -41t50.5 -33.5t63.5 -33.5q33 -17 65 -35.5t57 -43.5t40 -58t15 -80zM275 790h-57l-102 134h70l61 -84l61 84h69z" />
    <glyph glyph-name="scaron" unicode="&#x161;" horiz-adv-x="361" 
d="M323 109q0 -26 -11.5 -48t-31 -38t-45.5 -25t-54 -9q-41 0 -78.5 13t-65.5 35l35 50q24 -19 53 -29t54 -10q29 0 53.5 16t24.5 43q0 17 -7 28.5t-19.5 20.5t-29 15.5t-34.5 12.5q-21 8 -43 18t-39 24t-28 34.5t-11 48.5q0 26 11 46.5t30 34.5t43 22t49 8q34 0 67 -9
t64 -32l-30 -50q-24 17 -49.5 25t-51.5 8q-24 0 -46 -12t-22 -39q0 -26 23 -40.5t61 -27.5q23 -8 45.5 -18.5t41 -25.5t30 -36.5t11.5 -53.5zM206 488h-57l-102 134h70l61 -84l61 84h69z" />
    <glyph glyph-name="Ydieresis" unicode="&#x178;" horiz-adv-x="636" 
d="M351 344v-344h-70v345l-257 385h81l214 -318l213 318h79zM364 779v96h66v-96h-66zM207 779v96h66v-96h-66z" />
    <glyph glyph-name="Zcaron" unicode="&#x17d;" horiz-adv-x="623" 
d="M151 66h424v-66h-544l426 664h-370v66h492zM344 789h-57l-102 134h70l61 -84l61 84h69z" />
    <glyph glyph-name="zcaron" unicode="&#x17e;" horiz-adv-x="424" 
d="M139 60h242v-60h-362l260 347h-222v61h343zM250 488h-57l-102 134h70l61 -84l61 84h69z" />
    <glyph glyph-name="florin" unicode="&#x192;" horiz-adv-x="269" 
d="M252 671q-7 1 -13 1h-10h-7q-17 -1 -29 -13.5t-14 -38.5l-19 -212h67l-5 -60h-67l-38 -435q-4 -48 -34 -70t-67 -22h-20t-21 2l5 58q7 -1 13 -1h10h7q17 1 29 13.5t14 38.5l36 416h-57l5 60h58l20 232q5 48 34.5 69.5t66.5 21.5h20.5t20.5 -1z" />
    <glyph glyph-name="circumflex" unicode="&#x2c6;" 
d="M294 488l-61 84l-61 -84h-69l102 134h57l102 -134h-70z" />
    <glyph glyph-name="caron" unicode="&#x2c7;" 
d="M261 488h-57l-102 134h70l61 -84l61 84h69z" />
    <glyph glyph-name="breve" unicode="&#x2d8;" 
d="M370 620q-2 -66 -40.5 -101t-96.5 -35q-57 0 -95.5 35t-41.5 101h58q1 -35 21 -60t58 -25q39 0 59 25t21 60h57z" />
    <glyph glyph-name="dotaccent" unicode="&#x2d9;" 
d="M200 488v96h67v-96h-67z" />
    <glyph glyph-name="ring" unicode="&#x2da;" 
d="M337 585q0 -22 -8 -41t-22 -33t-33 -22t-41 -8q-21 0 -40 8t-33 22t-22 33t-8 41q0 21 8 40t22 33t33 22t40 8q22 0 41 -8t33 -22t22 -33t8 -40zM292 585q0 24 -17 41t-42 17q-24 0 -41 -17t-17 -41q0 -25 17 -42t41 -17q25 0 42 17t17 42z" />
    <glyph glyph-name="ogonek" unicode="&#x2db;" 
d="M320 -146q-17 -16 -42 -25t-51 -9q-21 0 -40.5 5t-34.5 15.5t-24 26t-9 35.5q0 28 24 57t72 53h57q-51 -32 -71 -58t-20 -48q0 -24 14 -34t37 -10q36 0 66 23z" />
    <glyph glyph-name="tilde" unicode="&#x2dc;" 
d="M372 583q-1 -42 -17.5 -69.5t-61.5 -27.5q-17 0 -35 8t-32 17q-14 8 -26 14t-23 6q-25 0 -27 -43h-56q2 41 18 69t62 28q17 0 34 -8t31 -16t27 -14.5t24 -6.5q25 0 27 43h55z" />
    <glyph glyph-name="hungarumlaut" unicode="&#x2dd;" 
d="M284 488h-67l87 138h67zM154 488h-67l87 138h67z" />
    <glyph glyph-name="pi" unicode="&#x3c0;" horiz-adv-x="844" 
d="M799 365q0 -78 -29.5 -146.5t-81 -120t-120 -81t-146.5 -29.5t-146.5 29.5t-120 81t-81 120t-29.5 146.5t29.5 146.5t81 120t120 81t146.5 29.5t146.5 -29.5t120 -81t81 -120t29.5 -146.5zM756 364q0 69 -26 130t-71.5 106.5t-106.5 72t-130 26.5t-130 -26.5t-106.5 -72
t-71.5 -106.5t-26 -130t26 -130t71.5 -106t106.5 -71.5t130 -26.5t130 26.5t106.5 71.5t71.5 106t26 130zM581 455q0 -28 -10.5 -52.5t-29.5 -42.5t-44 -28t-55 -10h-76v-176h-51v438h122q66 0 105 -36t39 -93zM528 456q0 37 -25 58.5t-70 21.5h-67v-165h65q52 0 74.5 23.5
t22.5 61.5z" />
    <glyph glyph-name="endash" unicode="&#x2013;" horiz-adv-x="432" 
d="M53 189v61h326v-61h-326z" />
    <glyph glyph-name="emdash" unicode="&#x2014;" horiz-adv-x="604" 
d="M53 189v61h497v-61h-497z" />
    <glyph glyph-name="quoteleft" unicode="&#x2018;" horiz-adv-x="179" 
d="M148 730q-13 -20 -19 -48t-6 -58v-89h-72v67q0 18 5 36.5t13 35.5t17.5 31.5t18.5 24.5h43z" />
    <glyph glyph-name="quoteright" unicode="&#x2019;" horiz-adv-x="179" 
d="M129 663q0 -18 -5 -36.5t-13.5 -35.5t-18 -31.5t-18.5 -24.5h-42q13 20 19 48t6 58v89h72v-67z" />
    <glyph glyph-name="quotesinglbase" unicode="&#x201a;" horiz-adv-x="179" 
d="M127 29q0 -18 -5 -37t-13 -36t-17.5 -31t-18.5 -24h-43q13 20 19.5 47.5t6.5 58.5v89h71v-67z" />
    <glyph glyph-name="quotedblleft" unicode="&#x201c;" horiz-adv-x="307" 
d="M276 730q-13 -20 -19 -48t-6 -58v-89h-72v67q0 18 5 36.5t13.5 35.5t18 31.5t18.5 24.5h42zM147 730q-13 -20 -19 -48t-6 -58v-89h-72v67q0 18 5 36.5t13.5 35.5t18 31.5t18.5 24.5h42z" />
    <glyph glyph-name="quotedblright" unicode="&#x201d;" horiz-adv-x="307" 
d="M258 663q0 -18 -5 -36.5t-13.5 -35.5t-18 -31.5t-18.5 -24.5h-42q13 20 19 48t6 58v89h72v-67zM129 663q0 -18 -5 -36.5t-13.5 -35.5t-18 -31.5t-18.5 -24.5h-42q13 20 19 48t6 58v89h72v-67z" />
    <glyph glyph-name="quotedblbase" unicode="&#x201e;" horiz-adv-x="307" 
d="M256 29q0 -18 -5 -37t-13.5 -36t-18 -31t-18.5 -24h-42q13 20 19 47.5t6 58.5v89h72v-67zM127 29q0 -18 -5 -37t-13 -36t-17.5 -31t-18.5 -24h-43q13 20 19.5 47.5t6.5 58.5v89h71v-67z" />
    <glyph glyph-name="dagger" unicode="&#x2020;" horiz-adv-x="531" 
d="M298 393v-572h-65v572h-211v59h211v278h65v-278h211v-59h-211z" />
    <glyph glyph-name="daggerdbl" unicode="&#x2021;" horiz-adv-x="531" 
d="M298 112v-291h-65v291h-211v59h211v222h-211v59h211v278h65v-278h211v-59h-211v-222h211v-59h-211z" />
    <glyph glyph-name="bullet" unicode="&#x2022;" horiz-adv-x="335" 
d="M260 379q0 -38 -27.5 -65.5t-65.5 -27.5t-65.5 27.5t-27.5 65.5t27.5 65.5t65.5 27.5t65.5 -27.5t27.5 -65.5z" />
    <glyph glyph-name="ellipsis" unicode="&#x2026;" horiz-adv-x="537" 
d="M412 0v96h72v-96h-72zM233 0v96h71v-96h-71zM53 0v96h72v-96h-72z" />
    <glyph glyph-name="perthousand" unicode="&#x2030;" horiz-adv-x="1050" 
d="M334 556q0 -40 -10 -75t-28.5 -61t-45.5 -40.5t-60 -14.5q-27 0 -52 11.5t-44.5 35t-31.5 59t-12 82.5q0 40 10 74.5t28.5 60t45 40t59.5 14.5q34 0 60.5 -15t44.5 -40.5t27 -59t9 -71.5zM149 0h-73l499 730h73zM1010 179q0 -40 -10 -75t-28.5 -61t-45.5 -40.5t-60 -14.5
q-27 0 -52 11.5t-44.5 35t-31.5 59t-12 82.5q0 40 10 74.5t28.5 60t45 40t59.5 14.5q34 0 60.5 -15t44.5 -40.5t27 -59t9 -71.5zM684 179q0 -40 -10 -75t-28.5 -61t-45.5 -40.5t-60 -14.5q-27 0 -52 11.5t-44.5 35t-31.5 59t-12 82.5q0 40 10 74.5t28.5 60t45 40t59.5 14.5
q34 0 60.5 -15t44.5 -40.5t27 -59t9 -71.5zM271 553q0 26 -4.5 50t-14.5 42.5t-24.5 30t-34.5 11.5t-35.5 -11t-25.5 -29t-15 -42.5t-5 -51.5t4.5 -51t14.5 -42t24.5 -29t34.5 -11q21 0 36.5 11t25.5 29.5t14.5 42.5t4.5 50zM947 176q0 26 -4.5 50t-14.5 42.5t-24.5 30
t-34.5 11.5t-35.5 -11t-25.5 -29t-15 -42.5t-5 -51.5t4.5 -51t14.5 -42t24.5 -29t34.5 -11q21 0 36.5 11t25.5 29.5t14.5 42.5t4.5 50zM622 176q0 26 -5 50t-14.5 42.5t-24.5 30t-35 11.5t-35 -11t-25 -29t-15 -42.5t-5 -51.5t4.5 -51t14 -42t24 -29t34.5 -11q21 0 36.5 11
t25.5 29.5t15 42.5t5 50z" />
    <glyph glyph-name="guilsinglleft" unicode="&#x2039;" horiz-adv-x="208" 
d="M24 195v34l148 138v-71l-86 -84l86 -84v-72z" />
    <glyph glyph-name="guilsinglright" unicode="&#x203a;" horiz-adv-x="208" 
d="M36 56v71l86 84l-86 84v72l148 -139v-34z" />
    <glyph glyph-name="fraction" unicode="&#x2044;" horiz-adv-x="382" 
d="M14 0h-69l423 730h69z" />
    <glyph glyph-name="Euro" unicode="&#x20ac;" horiz-adv-x="607" 
d="M176 297q6 -48 19.5 -92t36 -77.5t54 -54t72.5 -20.5q56 0 93 28t61 76l62 -32q-34 -66 -86.5 -101.5t-130.5 -35.5q-54 0 -98 22.5t-76.5 63.5t-53 97.5t-26.5 125.5h-83v42h80q-1 23 0 45h-80v40h82q6 68 24.5 126t51 100.5t78 67t105.5 24.5q75 0 127 -35t84 -98
l-61 -32q-24 45 -59.5 72.5t-91.5 27.5q-43 0 -76 -20t-55.5 -54.5t-35.5 -80.5t-18 -98h222v-40h-224q-1 -24 0 -45h224v-42h-221z" />
    <glyph glyph-name="trademark" unicode="&#x2122;" horiz-adv-x="802" 
d="M703 292v363l-145 -213h-21l-146 210v-360h-48v438h47l157 -226l155 226h49v-438h-48zM174 686v-394h-48v394h-99v44h246v-44h-99z" />
    <glyph glyph-name="Omega" unicode="&#x2126;" horiz-adv-x="730" 
d="M305 670v60h120v-60h-120zM670 305v120h60v-120h-60zM305 305v120h120v-120h-120zM0 305v120h60v-120h-60zM305 0v60h120v-60h-120z" />
    <glyph glyph-name="partialdiff" unicode="&#x2202;" horiz-adv-x="730" 
d="M305 670v60h120v-60h-120zM670 305v120h60v-120h-60zM305 305v120h120v-120h-120zM0 305v120h60v-120h-60zM305 0v60h120v-60h-120z" />
    <glyph glyph-name="Delta" unicode="&#x2206;" horiz-adv-x="730" 
d="M305 670v60h120v-60h-120zM670 305v120h60v-120h-60zM305 305v120h120v-120h-120zM0 305v120h60v-120h-60zM305 0v60h120v-60h-120z" />
    <glyph glyph-name="product" unicode="&#x220f;" horiz-adv-x="730" 
d="M305 670v60h120v-60h-120zM670 305v120h60v-120h-60zM305 305v120h120v-120h-120zM0 305v120h60v-120h-60zM305 0v60h120v-60h-120z" />
    <glyph glyph-name="summation" unicode="&#x2211;" horiz-adv-x="730" 
d="M305 670v60h120v-60h-120zM670 305v120h60v-120h-60zM305 305v120h120v-120h-120zM0 305v120h60v-120h-60zM305 0v60h120v-60h-120z" />
    <glyph glyph-name="minus" unicode="&#x2212;" horiz-adv-x="525" 
d="M37 350h451v-62h-451v62z" />
    <glyph glyph-name="radical" unicode="&#x221a;" horiz-adv-x="510" 
d="M222 -16h-28l-175 332h74l110 -215l212 629h70z" />
    <glyph glyph-name="infinity" unicode="&#x221e;" horiz-adv-x="653" 
d="M525 512v96h65v-96h-65zM374 348v-348h-65v348h-66v60h66v232q0 48 28 69.5t65 21.5h20t21 -1v-59q-7 1 -13 1h-10h-7q-17 -1 -28 -12t-11 -40v-212h70v-60h-70zM143 348v-348h-65v348h-66v60h66v232q0 48 28 69.5t65 21.5h20t21 -1v-59q-7 1 -13 1h-10h-7
q-17 -1 -28 -12t-11 -40v-212h70v-60h-70zM525 0v408h65v-408h-65z" />
    <glyph glyph-name="integral" unicode="&#x222b;" horiz-adv-x="730" 
d="M305 670v60h120v-60h-120zM670 305v120h60v-120h-60zM305 305v120h120v-120h-120zM0 305v120h60v-120h-60zM305 0v60h120v-60h-120z" />
    <glyph glyph-name="approxequal" unicode="&#x2248;" horiz-adv-x="730" 
d="M305 670v60h120v-60h-120zM670 305v120h60v-120h-60zM305 305v120h120v-120h-120zM0 305v120h60v-120h-60zM305 0v60h120v-60h-120z" />
    <glyph glyph-name="notequal" unicode="&#x2260;" horiz-adv-x="462" 
d="M374 348v-348h-65v348h-66v60h66v232q0 48 28 69.5t65 21.5h20t21 -1v-59q-7 1 -13 1h-10h-7q-17 -1 -28 -12t-11 -40v-212h70v-60h-70zM143 348v-348h-65v348h-66v60h66v232q0 48 28 69.5t65 21.5h20t21 -1v-59q-7 1 -13 1h-10h-7q-17 -1 -28 -12t-11 -40v-212h70v-60
h-70z" />
    <glyph glyph-name="lessequal" unicode="&#x2264;" horiz-adv-x="730" 
d="M305 670v60h120v-60h-120zM670 305v120h60v-120h-60zM305 305v120h120v-120h-120zM0 305v120h60v-120h-60zM305 0v60h120v-60h-120z" />
    <glyph glyph-name="greaterequal" unicode="&#x2265;" horiz-adv-x="730" 
d="M305 670v60h120v-60h-120zM670 305v120h60v-120h-60zM305 305v120h120v-120h-120zM0 305v120h60v-120h-60zM305 0v60h120v-60h-120z" />
    <glyph glyph-name="lozenge" unicode="&#x25ca;" horiz-adv-x="730" 
d="M305 670v60h120v-60h-120zM670 305v120h60v-120h-60zM305 305v120h120v-120h-120zM0 305v120h60v-120h-60zM305 0v60h120v-60h-120z" />
    <glyph glyph-name="fi" unicode="&#xfb01;" horiz-adv-x="421" 
d="M293 512v96h65v-96h-65zM143 348v-348h-65v348h-66v60h66v232q0 48 28 69.5t65 21.5h20t21 -1v-59q-7 1 -13 1h-10h-7q-17 -1 -28 -12t-11 -40v-212h70v-60h-70zM293 0v408h65v-408h-65z" />
    <glyph glyph-name="fl" unicode="&#xfb02;" horiz-adv-x="421" 
d="M293 0v730h65v-730h-65zM143 348v-348h-65v348h-66v60h66v232q0 48 28 69.5t65 21.5h20t21 -1v-59q-7 1 -13 1h-10h-7q-17 -1 -28 -12t-11 -40v-212h70v-60h-70z" />
    <glyph glyph-name="NUL" horiz-adv-x="0" 
 />
    <glyph glyph-name="apple" horiz-adv-x="730" 
d="M305 670v60h120v-60h-120zM670 305v120h60v-120h-60zM305 305v120h120v-120h-120zM0 305v120h60v-120h-60zM305 0v60h120v-60h-120z" />
  </font>
</defs>
</svg>
