<svg xmlns="http://www.w3.org/2000/svg" xmlns:xlink="http://www.w3.org/1999/xlink" version="1.1" x="0px" y="0px" viewBox="0 0 100 125" enable-background="new 0 0 100 100" xml:space="preserve">
  <path fill-rule="evenodd" clip-rule="evenodd" d="M70.796,23.114c-11.484-11.486-30.108-11.485-41.592,0   c-11.485,11.485-11.485,30.105,0,41.592L50,85.5l20.796-20.794C82.28,53.221,82.282,34.6,70.796,23.114z M65.02,58.93   c-8.283,8.281-21.756,8.282-30.039,0c-8.281-8.282-8.281-21.757,0-30.039c8.283-8.282,21.756-8.282,30.039,0   C73.301,37.173,73.301,50.648,65.02,58.93z"/><path fill-rule="evenodd" clip-rule="evenodd" d="M61.221,38.521h-7.87l-2.406-7.403c-0.116-0.416-0.493-0.721-0.944-0.721   s-0.827,0.305-0.945,0.721l-2.396,7.403h-7.87c-0.543,0-0.975,0.473-0.975,1.021c0,0.334,0.169,0.634,0.421,0.812   c0.158,0.107,6.356,4.636,6.356,4.636s-2.379,7.312-2.426,7.428c-0.036,0.106-0.062,0.223-0.062,0.345   c0,0.549,0.441,0.99,0.984,0.99c0.208,0,0.401-0.065,0.565-0.177L50,48.954c0,0,6.205,4.519,6.346,4.621   c0.164,0.111,0.357,0.177,0.565,0.177c0.543,0,0.984-0.446,0.984-0.99c0-0.122-0.025-0.238-0.061-0.345   c-0.047-0.116-2.427-7.428-2.427-7.428s6.198-4.529,6.356-4.636c0.253-0.178,0.421-0.477,0.421-0.817   C62.186,38.993,61.765,38.521,61.221,38.521z"/>
</svg>
